<?xml version="1.0" encoding="UTF-8" standalone="no"?>
<!DOCTYPE svg PUBLIC "-//W3C//DTD SVG 1.1//EN"
 "http://www.w3.org/Graphics/SVG/1.1/DTD/svg11.dtd">
<!-- Generated by graphviz version 14.1.1 (20251213.1925)
 -->
<!-- Title: SiteGamer2025 Pages: 1 -->
<svg width="1550pt" height="888pt"
 viewBox="0.00 0.00 1550.00 888.00" xmlns="http://www.w3.org/2000/svg" xmlns:xlink="http://www.w3.org/1999/xlink">
<g id="graph0" class="graph" transform="scale(1 1) rotate(0) translate(4 883.91)">
<title>SiteGamer2025</title>
<polygon fill="white" stroke="none" points="-4,4 -4,-883.91 1546,-883.91 1546,4 -4,4"/>
<g id="clust1" class="cluster">
<title>cluster_frontend</title>
<polygon fill="lightblue" stroke="lightblue" points="8,-297.78 8,-609.78 509.75,-609.78 509.75,-297.78 8,-297.78"/>
<text xml:space="preserve" text-anchor="middle" x="258.88" y="-592.48" font-family="Times New Roman,serif" font-size="14.00">Frontend (Static HTML/JS)</text>
</g>
<g id="clust2" class="cluster">
<title>cluster_backend</title>
<polygon fill="lightgreen" stroke="lightgreen" points="613,-42.78 613,-586.78 1092.25,-586.78 1092.25,-42.78 613,-42.78"/>
<text xml:space="preserve" text-anchor="middle" x="852.62" y="-569.48" font-family="Times New Roman,serif" font-size="14.00">Backend (Node.js + Express)</text>
</g>
<g id="clust3" class="cluster">
<title>cluster_database</title>
<polygon fill="lightyellow" stroke="lightyellow" points="1152.75,-208.78 1152.75,-505.78 1534,-505.78 1534,-208.78 1152.75,-208.78"/>
<text xml:space="preserve" text-anchor="middle" x="1343.38" y="-488.48" font-family="Times New Roman,serif" font-size="14.00">Database (PostgreSQL)</text>
</g>
<g id="clust4" class="cluster">
<title>cluster_scripts</title>
<polygon fill="lightcoral" stroke="lightcoral" points="307.88,-26.78 307.88,-280.78 493.62,-280.78 493.62,-26.78 307.88,-26.78"/>
<text xml:space="preserve" text-anchor="middle" x="400.75" y="-263.48" font-family="Times New Roman,serif" font-size="14.00">Scripts de gestion</text>
</g>
<g id="clust5" class="cluster">
<title>cluster_output</title>
<polygon fill="lightgray" stroke="lightgray" points="929,-594.78 929,-690.78 1075.75,-690.78 1075.75,-594.78 929,-594.78"/>
<text xml:space="preserve" text-anchor="middle" x="1002.38" y="-673.48" font-family="Times New Roman,serif" font-size="14.00">Fichiers générés</text>
</g>
<!-- indexHTML -->
<g id="node1" class="node">
<title>indexHTML</title>
<path fill="#4a90e2" stroke="black" d="M152.38,-577.53C152.38,-577.53 98.12,-577.53 98.12,-577.53 92.12,-577.53 86.12,-571.53 86.12,-565.53 86.12,-565.53 86.12,-550.03 86.12,-550.03 86.12,-544.03 92.12,-538.03 98.12,-538.03 98.12,-538.03 152.38,-538.03 152.38,-538.03 158.38,-538.03 164.38,-544.03 164.38,-550.03 164.38,-550.03 164.38,-565.53 164.38,-565.53 164.38,-571.53 158.38,-577.53 152.38,-577.53"/>
<text xml:space="preserve" text-anchor="middle" x="125.25" y="-560.23" font-family="Arial" font-size="14.00" fill="white">index.html</text>
<text xml:space="preserve" text-anchor="middle" x="125.25" y="-544.48" font-family="Arial" font-size="14.00" fill="white">(Accueil)</text>
</g>
<!-- fichesJS -->
<g id="node6" class="node">
<title>fichesJS</title>
<path fill="#7b68ee" stroke="black" d="M441.38,-577.53C441.38,-577.53 360.12,-577.53 360.12,-577.53 354.12,-577.53 348.12,-571.53 348.12,-565.53 348.12,-565.53 348.12,-550.03 348.12,-550.03 348.12,-544.03 354.12,-538.03 360.12,-538.03 360.12,-538.03 441.38,-538.03 441.38,-538.03 447.38,-538.03 453.38,-544.03 453.38,-550.03 453.38,-550.03 453.38,-565.53 453.38,-565.53 453.38,-571.53 447.38,-577.53 441.38,-577.53"/>
<text xml:space="preserve" text-anchor="middle" x="400.75" y="-560.23" font-family="Arial" font-size="14.00" fill="white">fiches.js</text>
<text xml:space="preserve" text-anchor="middle" x="400.75" y="-544.48" font-family="Arial" font-size="14.00" fill="white">(Liste produits)</text>
</g>
<!-- indexHTML&#45;&gt;fichesJS -->
<g id="edge1" class="edge">
<title>indexHTML&#45;&gt;fichesJS</title>
<path fill="none" stroke="blue" d="M164.86,-557.78C209.44,-557.78 283.44,-557.78 336.47,-557.78"/>
<polygon fill="blue" stroke="blue" points="336.27,-561.28 346.27,-557.78 336.27,-554.28 336.27,-561.28"/>
<text xml:space="preserve" text-anchor="middle" x="267.12" y="-560.28" font-family="Arial" font-size="10.00">charge</text>
</g>
<!-- topHTML -->
<g id="node2" class="node">
<title>topHTML</title>
<path fill="#4a90e2" stroke="black" d="M172.25,-519.53C172.25,-519.53 78.25,-519.53 78.25,-519.53 72.25,-519.53 66.25,-513.53 66.25,-507.53 66.25,-507.53 66.25,-492.03 66.25,-492.03 66.25,-486.03 72.25,-480.03 78.25,-480.03 78.25,-480.03 172.25,-480.03 172.25,-480.03 178.25,-480.03 184.25,-486.03 184.25,-492.03 184.25,-492.03 184.25,-507.53 184.25,-507.53 184.25,-513.53 178.25,-519.53 172.25,-519.53"/>
<text xml:space="preserve" text-anchor="middle" x="125.25" y="-502.23" font-family="Arial" font-size="14.00" fill="white">top&#45;du&#45;mois.html</text>
<text xml:space="preserve" text-anchor="middle" x="125.25" y="-486.48" font-family="Arial" font-size="14.00" fill="white">(Tops produits)</text>
</g>
<!-- topHTML&#45;&gt;fichesJS -->
<g id="edge2" class="edge">
<title>topHTML&#45;&gt;fichesJS</title>
<path fill="none" stroke="blue" d="M184.59,-512.16C229.37,-521.65 291.1,-534.74 336.96,-544.47"/>
<polygon fill="blue" stroke="blue" points="335.97,-547.84 346.48,-546.49 337.42,-540.99 335.97,-547.84"/>
<text xml:space="preserve" text-anchor="middle" x="267.12" y="-534.76" font-family="Arial" font-size="10.00">charge</text>
</g>
<!-- adminHTML -->
<g id="node3" class="node">
<title>adminHTML</title>
<path fill="#e24a4a" stroke="black" d="M205.25,-403.53C205.25,-403.53 45.25,-403.53 45.25,-403.53 39.25,-403.53 33.25,-397.53 33.25,-391.53 33.25,-391.53 33.25,-376.03 33.25,-376.03 33.25,-370.03 39.25,-364.03 45.25,-364.03 45.25,-364.03 205.25,-364.03 205.25,-364.03 211.25,-364.03 217.25,-370.03 217.25,-376.03 217.25,-376.03 217.25,-391.53 217.25,-391.53 217.25,-397.53 211.25,-403.53 205.25,-403.53"/>
<text xml:space="preserve" text-anchor="middle" x="125.25" y="-386.23" font-family="Arial" font-size="14.00" fill="white">admin&#45;gestion&#45;produits.html</text>
<text xml:space="preserve" text-anchor="middle" x="125.25" y="-370.48" font-family="Arial" font-size="14.00" fill="white">(Admin)</text>
</g>
<!-- adminJS -->
<g id="node8" class="node">
<title>adminJS</title>
<path fill="#9b59b6" stroke="black" d="M472.5,-403.53C472.5,-403.53 329,-403.53 329,-403.53 323,-403.53 317,-397.53 317,-391.53 317,-391.53 317,-376.03 317,-376.03 317,-370.03 323,-364.03 329,-364.03 329,-364.03 472.5,-364.03 472.5,-364.03 478.5,-364.03 484.5,-370.03 484.5,-376.03 484.5,-376.03 484.5,-391.53 484.5,-391.53 484.5,-397.53 478.5,-403.53 472.5,-403.53"/>
<text xml:space="preserve" text-anchor="middle" x="400.75" y="-386.23" font-family="Arial" font-size="14.00" fill="white">admin&#45;gestion&#45;produits.js</text>
<text xml:space="preserve" text-anchor="middle" x="400.75" y="-370.48" font-family="Arial" font-size="14.00" fill="white">(CRUD admin)</text>
</g>
<!-- adminHTML&#45;&gt;adminJS -->
<g id="edge3" class="edge">
<title>adminHTML&#45;&gt;adminJS</title>
<path fill="none" stroke="blue" d="M217.7,-383.78C245.94,-383.78 277.09,-383.78 305.51,-383.78"/>
<polygon fill="blue" stroke="blue" points="305.16,-387.28 315.16,-383.78 305.16,-380.28 305.16,-387.28"/>
<text xml:space="preserve" text-anchor="middle" x="267.12" y="-386.28" font-family="Arial" font-size="10.00">charge</text>
</g>
<!-- adminTendHTML -->
<g id="node4" class="node">
<title>adminTendHTML</title>
<path fill="#e24a4a" stroke="black" d="M222.5,-345.53C222.5,-345.53 28,-345.53 28,-345.53 22,-345.53 16,-339.53 16,-333.53 16,-333.53 16,-318.03 16,-318.03 16,-312.03 22,-306.03 28,-306.03 28,-306.03 222.5,-306.03 222.5,-306.03 228.5,-306.03 234.5,-312.03 234.5,-318.03 234.5,-318.03 234.5,-333.53 234.5,-333.53 234.5,-339.53 228.5,-345.53 222.5,-345.53"/>
<text xml:space="preserve" text-anchor="middle" x="125.25" y="-328.23" font-family="Arial" font-size="14.00" fill="white">admin&#45;tendances&#45;dashboard.html</text>
<text xml:space="preserve" text-anchor="middle" x="125.25" y="-312.48" font-family="Arial" font-size="14.00" fill="white">(Admin tendances)</text>
</g>
<!-- adminTendJS -->
<g id="node9" class="node">
<title>adminTendJS</title>
<path fill="#9b59b6" stroke="black" d="M489.75,-345.53C489.75,-345.53 311.75,-345.53 311.75,-345.53 305.75,-345.53 299.75,-339.53 299.75,-333.53 299.75,-333.53 299.75,-318.03 299.75,-318.03 299.75,-312.03 305.75,-306.03 311.75,-306.03 311.75,-306.03 489.75,-306.03 489.75,-306.03 495.75,-306.03 501.75,-312.03 501.75,-318.03 501.75,-318.03 501.75,-333.53 501.75,-333.53 501.75,-339.53 495.75,-345.53 489.75,-345.53"/>
<text xml:space="preserve" text-anchor="middle" x="400.75" y="-328.23" font-family="Arial" font-size="14.00" fill="white">admin&#45;tendances&#45;dashboard.js</text>
<text xml:space="preserve" text-anchor="middle" x="400.75" y="-312.48" font-family="Arial" font-size="14.00" fill="white">(CRUD tendances)</text>
</g>
<!-- adminTendHTML&#45;&gt;adminTendJS -->
<g id="edge4" class="edge">
<title>adminTendHTML&#45;&gt;adminTendJS</title>
<path fill="none" stroke="blue" d="M234.74,-325.78C252.23,-325.78 270.37,-325.78 287.94,-325.78"/>
<polygon fill="blue" stroke="blue" points="287.88,-329.28 297.88,-325.78 287.88,-322.28 287.88,-329.28"/>
<text xml:space="preserve" text-anchor="middle" x="267.12" y="-328.28" font-family="Arial" font-size="10.00">charge</text>
</g>
<!-- ficheHTML -->
<g id="node5" class="node">
<title>ficheHTML</title>
<path fill="#4a90e2" stroke="black" d="M222.5,-461.53C222.5,-461.53 28,-461.53 28,-461.53 22,-461.53 16,-455.53 16,-449.53 16,-449.53 16,-434.03 16,-434.03 16,-428.03 22,-422.03 28,-422.03 28,-422.03 222.5,-422.03 222.5,-422.03 228.5,-422.03 234.5,-428.03 234.5,-434.03 234.5,-434.03 234.5,-449.53 234.5,-449.53 234.5,-455.53 228.5,-461.53 222.5,-461.53"/>
<text xml:space="preserve" text-anchor="middle" x="125.25" y="-444.23" font-family="Arial" font-size="14.00" fill="white">fiches/&lt;categorie&gt;/&lt;produit&gt;.html</text>
<text xml:space="preserve" text-anchor="middle" x="125.25" y="-428.48" font-family="Arial" font-size="14.00" fill="white">(Détail produit)</text>
</g>
<!-- ficheJS -->
<g id="node7" class="node">
<title>ficheJS</title>
<path fill="#7b68ee" stroke="black" d="M441,-490.53C441,-490.53 360.5,-490.53 360.5,-490.53 354.5,-490.53 348.5,-484.53 348.5,-478.53 348.5,-478.53 348.5,-463.03 348.5,-463.03 348.5,-457.03 354.5,-451.03 360.5,-451.03 360.5,-451.03 441,-451.03 441,-451.03 447,-451.03 453,-457.03 453,-463.03 453,-463.03 453,-478.53 453,-478.53 453,-484.53 447,-490.53 441,-490.53"/>
<text xml:space="preserve" text-anchor="middle" x="400.75" y="-473.23" font-family="Arial" font-size="14.00" fill="white">fiche&#45;produit.js</text>
<text xml:space="preserve" text-anchor="middle" x="400.75" y="-457.48" font-family="Arial" font-size="14.00" fill="white">(Détail produit)</text>
</g>
<!-- ficheHTML&#45;&gt;ficheJS -->
<g id="edge5" class="edge">
<title>ficheHTML&#45;&gt;ficheJS</title>
<path fill="none" stroke="blue" d="M234.74,-453.29C269.39,-456.96 306.56,-460.9 336.84,-464.11"/>
<polygon fill="blue" stroke="blue" points="336.27,-467.57 346.59,-465.15 337.01,-460.61 336.27,-467.57"/>
<text xml:space="preserve" text-anchor="middle" x="267.12" y="-460.52" font-family="Arial" font-size="10.00">charge</text>
</g>
<!-- apiProduits -->
<g id="node11" class="node">
<title>apiProduits</title>
<polygon fill="#2ecc71" stroke="black" points="788.12,-554.53 666.38,-554.53 666.38,-550.53 662.38,-550.53 662.38,-546.53 666.38,-546.53 666.38,-523.03 662.38,-523.03 662.38,-519.03 666.38,-519.03 666.38,-515.03 788.12,-515.03 788.12,-554.53"/>
<polyline fill="none" stroke="black" points="666.38,-550.53 670.38,-550.53 670.38,-546.53 666.38,-546.53"/>
<polyline fill="none" stroke="black" points="666.38,-523.03 670.38,-523.03 670.38,-519.03 666.38,-519.03"/>
<text xml:space="preserve" text-anchor="middle" x="727.25" y="-537.23" font-family="Arial" font-size="14.00" fill="white">GET /api/produits</text>
<text xml:space="preserve" text-anchor="middle" x="727.25" y="-521.48" font-family="Arial" font-size="14.00" fill="white">(Liste produits)</text>
</g>
<!-- fichesJS&#45;&gt;apiProduits -->
<g id="edge6" class="edge">
<title>fichesJS&#45;&gt;apiProduits</title>
<path fill="none" stroke="purple" d="M453.53,-554.11C507.91,-550.26 593.82,-544.17 654.67,-539.86"/>
<polygon fill="purple" stroke="purple" points="654.87,-543.35 664.6,-539.15 654.38,-536.37 654.87,-543.35"/>
<text xml:space="preserve" text-anchor="middle" x="561.38" y="-551.52" font-family="Arial" font-size="10.00">fetch()</text>
</g>
<!-- ficheJS&#45;&gt;apiProduits -->
<g id="edge7" class="edge">
<title>ficheJS&#45;&gt;apiProduits</title>
<path fill="none" stroke="purple" d="M453.47,-485.55C474,-491.1 497.88,-497.18 519.75,-501.78 564.47,-511.21 615.13,-519.34 655.09,-525.18"/>
<polygon fill="purple" stroke="purple" points="654.43,-528.62 664.83,-526.58 655.43,-521.69 654.43,-528.62"/>
<text xml:space="preserve" text-anchor="middle" x="561.38" y="-518.94" font-family="Arial" font-size="10.00">fetch()</text>
</g>
<!-- adminJS&#45;&gt;apiProduits -->
<g id="edge8" class="edge">
<title>adminJS&#45;&gt;apiProduits</title>
<path fill="none" stroke="purple" d="M456.27,-403.92C475.2,-413.1 495.29,-425.6 509.75,-441.78 517.72,-450.71 510.7,-458.96 519.75,-466.78 548.53,-491.68 572.96,-463.42 603,-486.78 610.53,-492.64 605.51,-499.87 613,-505.78 625.18,-515.4 640.18,-521.86 655.23,-526.19"/>
<polygon fill="purple" stroke="purple" points="654.14,-529.52 664.7,-528.61 655.88,-522.74 654.14,-529.52"/>
<text xml:space="preserve" text-anchor="middle" x="561.38" y="-489.28" font-family="Arial" font-size="10.00">GET</text>
</g>
<!-- apiProduitsPOST -->
<g id="node12" class="node">
<title>apiProduitsPOST</title>
<polygon fill="#2ecc71" stroke="black" points="792.62,-438.53 661.88,-438.53 661.88,-434.53 657.88,-434.53 657.88,-430.53 661.88,-430.53 661.88,-407.03 657.88,-407.03 657.88,-403.03 661.88,-403.03 661.88,-399.03 792.62,-399.03 792.62,-438.53"/>
<polyline fill="none" stroke="black" points="661.88,-434.53 665.88,-434.53 665.88,-430.53 661.88,-430.53"/>
<polyline fill="none" stroke="black" points="661.88,-407.03 665.88,-407.03 665.88,-403.03 661.88,-403.03"/>
<text xml:space="preserve" text-anchor="middle" x="727.25" y="-421.23" font-family="Arial" font-size="14.00" fill="white">POST /api/produits</text>
<text xml:space="preserve" text-anchor="middle" x="727.25" y="-405.48" font-family="Arial" font-size="14.00" fill="white">(Créer produit)</text>
</g>
<!-- adminJS&#45;&gt;apiProduitsPOST -->
<g id="edge9" class="edge">
<title>adminJS&#45;&gt;apiProduitsPOST</title>
<path fill="none" stroke="purple" d="M484.9,-392.75C535.85,-398.25 600.59,-405.23 650.19,-410.58"/>
<polygon fill="purple" stroke="purple" points="649.67,-414.04 659.99,-411.64 650.42,-407.08 649.67,-414.04"/>
<text xml:space="preserve" text-anchor="middle" x="561.38" y="-407.95" font-family="Arial" font-size="10.00">POST</text>
</g>
<!-- apiProduitsPUT -->
<g id="node13" class="node">
<title>apiProduitsPUT</title>
<polygon fill="#2ecc71" stroke="black" points="796.38,-148.53 658.12,-148.53 658.12,-144.53 654.12,-144.53 654.12,-140.53 658.12,-140.53 658.12,-117.03 654.12,-117.03 654.12,-113.03 658.12,-113.03 658.12,-109.03 796.38,-109.03 796.38,-148.53"/>
<polyline fill="none" stroke="black" points="658.12,-144.53 662.12,-144.53 662.12,-140.53 658.12,-140.53"/>
<polyline fill="none" stroke="black" points="658.12,-117.03 662.12,-117.03 662.12,-113.03 658.12,-113.03"/>
<text xml:space="preserve" text-anchor="middle" x="727.25" y="-131.23" font-family="Arial" font-size="14.00" fill="white">PUT /api/produits/:id</text>
<text xml:space="preserve" text-anchor="middle" x="727.25" y="-115.48" font-family="Arial" font-size="14.00" fill="white">(Modifier produit)</text>
</g>
<!-- adminJS&#45;&gt;apiProduitsPUT -->
<g id="edge10" class="edge">
<title>adminJS&#45;&gt;apiProduitsPUT</title>
<path fill="none" stroke="purple" d="M484.74,-372.74C494.22,-368.43 502.92,-362.61 509.75,-354.78 532.74,-328.46 496.41,-302.8 519.75,-276.78 545.16,-248.46 577.97,-285.45 603,-256.78 632.09,-223.47 584.16,-191.31 613,-157.78 621.89,-147.45 633.92,-140.54 646.82,-135.97"/>
<polygon fill="purple" stroke="purple" points="647.8,-139.33 656.36,-133.1 645.78,-132.63 647.8,-139.33"/>
<text xml:space="preserve" text-anchor="middle" x="561.38" y="-279.28" font-family="Arial" font-size="10.00">PUT</text>
</g>
<!-- apiProduitsDEL -->
<g id="node14" class="node">
<title>apiProduitsDEL</title>
<polygon fill="#2ecc71" stroke="black" points="809.12,-322.53 645.38,-322.53 645.38,-318.53 641.38,-318.53 641.38,-314.53 645.38,-314.53 645.38,-291.03 641.38,-291.03 641.38,-287.03 645.38,-287.03 645.38,-283.03 809.12,-283.03 809.12,-322.53"/>
<polyline fill="none" stroke="black" points="645.38,-318.53 649.38,-318.53 649.38,-314.53 645.38,-314.53"/>
<polyline fill="none" stroke="black" points="645.38,-291.03 649.38,-291.03 649.38,-287.03 645.38,-287.03"/>
<text xml:space="preserve" text-anchor="middle" x="727.25" y="-305.23" font-family="Arial" font-size="14.00" fill="white">DELETE /api/produits/:id</text>
<text xml:space="preserve" text-anchor="middle" x="727.25" y="-289.48" font-family="Arial" font-size="14.00" fill="white">(Supprimer produit)</text>
</g>
<!-- adminJS&#45;&gt;apiProduitsDEL -->
<g id="edge11" class="edge">
<title>adminJS&#45;&gt;apiProduitsDEL</title>
<path fill="none" stroke="purple" d="M481.07,-363.54C494,-360.26 507.24,-356.92 519.75,-353.78 557.24,-344.39 598.6,-334.15 634.39,-325.33"/>
<polygon fill="purple" stroke="purple" points="634.97,-328.79 643.84,-323 633.29,-321.99 634.97,-328.79"/>
<text xml:space="preserve" text-anchor="middle" x="561.38" y="-356.28" font-family="Arial" font-size="10.00">DELETE</text>
</g>
<!-- apiGenFiche -->
<g id="node15" class="node">
<title>apiGenFiche</title>
<polygon fill="#f39c12" stroke="black" points="820.75,-380.53 633.75,-380.53 633.75,-376.53 629.75,-376.53 629.75,-372.53 633.75,-372.53 633.75,-349.03 629.75,-349.03 629.75,-345.03 633.75,-345.03 633.75,-341.03 820.75,-341.03 820.75,-380.53"/>
<polyline fill="none" stroke="black" points="633.75,-376.53 637.75,-376.53 637.75,-372.53 633.75,-372.53"/>
<polyline fill="none" stroke="black" points="633.75,-349.03 637.75,-349.03 637.75,-345.03 633.75,-345.03"/>
<text xml:space="preserve" text-anchor="middle" x="727.25" y="-363.23" font-family="Arial" font-size="14.00" fill="white">POST /api/generate&#45;fiche/:id</text>
<text xml:space="preserve" text-anchor="middle" x="727.25" y="-347.48" font-family="Arial" font-size="14.00" fill="white">(Générer fiche HTML)</text>
</g>
<!-- adminJS&#45;&gt;apiGenFiche -->
<g id="edge12" class="edge">
<title>adminJS&#45;&gt;apiGenFiche</title>
<path fill="none" stroke="orange" d="M484.9,-377.89C526.61,-374.93 577.57,-371.32 621.89,-368.18"/>
<polygon fill="orange" stroke="orange" points="622.07,-371.68 631.8,-367.48 621.57,-364.69 622.07,-371.68"/>
<text xml:space="preserve" text-anchor="middle" x="561.38" y="-377.52" font-family="Arial" font-size="10.00">POST</text>
</g>
<!-- apiActu -->
<g id="node16" class="node">
<title>apiActu</title>
<polygon fill="#2ecc71" stroke="black" points="824.12,-90.53 630.38,-90.53 630.38,-86.53 626.38,-86.53 626.38,-82.53 630.38,-82.53 630.38,-59.03 626.38,-59.03 626.38,-55.03 630.38,-55.03 630.38,-51.03 824.12,-51.03 824.12,-90.53"/>
<polyline fill="none" stroke="black" points="630.38,-86.53 634.38,-86.53 634.38,-82.53 630.38,-82.53"/>
<polyline fill="none" stroke="black" points="630.38,-59.03 634.38,-59.03 634.38,-55.03 630.38,-55.03"/>
<text xml:space="preserve" text-anchor="middle" x="727.25" y="-73.23" font-family="Arial" font-size="14.00" fill="white">GET /api/:categorie/actualites</text>
<text xml:space="preserve" text-anchor="middle" x="727.25" y="-57.48" font-family="Arial" font-size="14.00" fill="white">(Actualités)</text>
</g>
<!-- adminTendJS&#45;&gt;apiActu -->
<g id="edge13" class="edge">
<title>adminTendJS&#45;&gt;apiActu</title>
<path fill="none" stroke="purple" d="M485.54,-305.56C494.89,-300.19 503.34,-293.39 509.75,-284.78 527.99,-260.31 501.43,-172.2 519.75,-147.78 543.44,-116.2 572.75,-142.15 603,-116.78 609.72,-111.15 605.99,-105.05 613,-99.78 615.31,-98.05 617.71,-96.42 620.18,-94.88"/>
<polygon fill="purple" stroke="purple" points="621.67,-98.06 628.74,-90.16 618.29,-91.93 621.67,-98.06"/>
<text xml:space="preserve" text-anchor="middle" x="561.38" y="-150.28" font-family="Arial" font-size="10.00">CRUD</text>
</g>
<!-- apiTech -->
<g id="node17" class="node">
<title>apiTech</title>
<polygon fill="#2ecc71" stroke="black" points="833.5,-206.53 621,-206.53 621,-202.53 617,-202.53 617,-198.53 621,-198.53 621,-175.03 617,-175.03 617,-171.03 621,-171.03 621,-167.03 833.5,-167.03 833.5,-206.53"/>
<polyline fill="none" stroke="black" points="621,-202.53 625,-202.53 625,-198.53 621,-198.53"/>
<polyline fill="none" stroke="black" points="621,-175.03 625,-175.03 625,-171.03 621,-171.03"/>
<text xml:space="preserve" text-anchor="middle" x="727.25" y="-189.23" font-family="Arial" font-size="14.00" fill="white">GET /api/:categorie/technologies</text>
<text xml:space="preserve" text-anchor="middle" x="727.25" y="-173.48" font-family="Arial" font-size="14.00" fill="white">(Technologies)</text>
</g>
<!-- adminTendJS&#45;&gt;apiTech -->
<g id="edge14" class="edge">
<title>adminTendJS&#45;&gt;apiTech</title>
<path fill="none" stroke="purple" d="M485.13,-305.6C494.61,-300.22 503.2,-293.41 509.75,-284.78 524.59,-265.23 501.63,-191.34 519.75,-174.78 533.63,-162.11 570.67,-161.81 609.62,-165.87"/>
<polygon fill="purple" stroke="purple" points="608.8,-169.3 619.14,-166.96 609.6,-162.35 608.8,-169.3"/>
<text xml:space="preserve" text-anchor="middle" x="561.38" y="-177.28" font-family="Arial" font-size="10.00">CRUD</text>
</g>
<!-- apiMarche -->
<g id="node18" class="node">
<title>apiMarche</title>
<polygon fill="#2ecc71" stroke="black" points="818.5,-264.53 636,-264.53 636,-260.53 632,-260.53 632,-256.53 636,-256.53 636,-233.03 632,-233.03 632,-229.03 636,-229.03 636,-225.03 818.5,-225.03 818.5,-264.53"/>
<polyline fill="none" stroke="black" points="636,-260.53 640,-260.53 640,-256.53 636,-256.53"/>
<polyline fill="none" stroke="black" points="636,-233.03 640,-233.03 640,-229.03 636,-229.03"/>
<text xml:space="preserve" text-anchor="middle" x="727.25" y="-247.23" font-family="Arial" font-size="14.00" fill="white">GET /api/:categorie/marche</text>
<text xml:space="preserve" text-anchor="middle" x="727.25" y="-231.48" font-family="Arial" font-size="14.00" fill="white">(Marché)</text>
</g>
<!-- adminTendJS&#45;&gt;apiMarche -->
<g id="edge15" class="edge">
<title>adminTendJS&#45;&gt;apiMarche</title>
<path fill="none" stroke="purple" d="M502.24,-316.94C543.88,-311.64 586.33,-303.57 603,-291.78 610.47,-286.5 605.75,-279.37 613,-273.78 616.95,-270.74 621.18,-268.01 625.61,-265.56"/>
<polygon fill="purple" stroke="purple" points="626.79,-268.88 634.22,-261.33 623.7,-262.6 626.79,-268.88"/>
<text xml:space="preserve" text-anchor="middle" x="561.38" y="-316.76" font-family="Arial" font-size="10.00">CRUD</text>
</g>
<!-- apiTendances -->
<g id="node19" class="node">
<title>apiTendances</title>
<polygon fill="#2ecc71" stroke="black" points="795.25,-496.53 659.25,-496.53 659.25,-492.53 655.25,-492.53 655.25,-488.53 659.25,-488.53 659.25,-465.03 655.25,-465.03 655.25,-461.03 659.25,-461.03 659.25,-457.03 795.25,-457.03 795.25,-496.53"/>
<polyline fill="none" stroke="black" points="659.25,-492.53 663.25,-492.53 663.25,-488.53 659.25,-488.53"/>
<polyline fill="none" stroke="black" points="659.25,-465.03 663.25,-465.03 663.25,-461.03 659.25,-461.03"/>
<text xml:space="preserve" text-anchor="middle" x="727.25" y="-479.23" font-family="Arial" font-size="14.00" fill="white">GET /api/tendances</text>
<text xml:space="preserve" text-anchor="middle" x="727.25" y="-463.48" font-family="Arial" font-size="14.00" fill="white">(Tendances)</text>
</g>
<!-- adminTendJS&#45;&gt;apiTendances -->
<g id="edge16" class="edge">
<title>adminTendJS&#45;&gt;apiTendances</title>
<path fill="none" stroke="purple" d="M499.91,-345.84C503.47,-348.48 506.78,-351.45 509.75,-354.78 529.79,-377.25 499.82,-399.22 519.75,-421.78 548.23,-454.03 571.44,-436.67 613,-447.78 624.22,-450.78 636.08,-453.89 647.73,-456.91"/>
<polygon fill="purple" stroke="purple" points="646.8,-460.28 657.35,-459.39 648.54,-453.5 646.8,-460.28"/>
<text xml:space="preserve" text-anchor="middle" x="561.38" y="-447.73" font-family="Arial" font-size="10.00">CRUD</text>
</g>
<!-- server -->
<g id="node10" class="node">
<title>server</title>
<path fill="#27ae60" stroke="black" d="M1072.25,-264.53C1072.25,-264.53 932.5,-264.53 932.5,-264.53 926.5,-264.53 920.5,-258.53 920.5,-252.53 920.5,-252.53 920.5,-237.03 920.5,-237.03 920.5,-231.03 926.5,-225.03 932.5,-225.03 932.5,-225.03 1072.25,-225.03 1072.25,-225.03 1078.25,-225.03 1084.25,-231.03 1084.25,-237.03 1084.25,-237.03 1084.25,-252.53 1084.25,-252.53 1084.25,-258.53 1078.25,-264.53 1072.25,-264.53"/>
<text xml:space="preserve" text-anchor="middle" x="1002.38" y="-247.23" font-family="Arial" font-size="14.00" fill="white">server.js</text>
<text xml:space="preserve" text-anchor="middle" x="1002.38" y="-231.48" font-family="Arial" font-size="14.00" fill="white">(API REST + Static files)</text>
</g>
<!-- db -->
<g id="node20" class="node">
<title>db</title>
<path fill="#f1c40f" stroke="black" d="M1253.25,-266C1253.25,-268.73 1232.52,-270.94 1207,-270.94 1181.48,-270.94 1160.75,-268.73 1160.75,-266 1160.75,-266 1160.75,-221.57 1160.75,-221.57 1160.75,-218.84 1181.48,-216.63 1207,-216.63 1232.52,-216.63 1253.25,-218.84 1253.25,-221.57 1253.25,-221.57 1253.25,-266 1253.25,-266"/>
<path fill="none" stroke="black" d="M1253.25,-266C1253.25,-263.28 1232.52,-261.07 1207,-261.07 1181.48,-261.07 1160.75,-263.28 1160.75,-266"/>
<text xml:space="preserve" text-anchor="middle" x="1207" y="-246.23" font-family="Arial" font-size="14.00">gamer_2025</text>
<text xml:space="preserve" text-anchor="middle" x="1207" y="-230.48" font-family="Arial" font-size="14.00">PostgreSQL</text>
</g>
<!-- server&#45;&gt;db -->
<g id="edge26" class="edge">
<title>server&#45;&gt;db</title>
<path fill="none" stroke="green" d="M1084.62,-244.38C1106.16,-244.28 1128.96,-244.16 1148.91,-244.07"/>
<polygon fill="green" stroke="green" points="1148.8,-247.57 1158.78,-244.02 1148.76,-240.57 1148.8,-247.57"/>
<text xml:space="preserve" text-anchor="middle" x="1122.5" y="-246.78" font-family="Arial" font-size="10.00">pg client</text>
</g>
<!-- apiProduits&#45;&gt;server -->
<!-- tableProduits -->
<g id="node21" class="node">
<title>tableProduits</title>
<polygon fill="#f9e79f" stroke="black" points="1523.38,-364.53 1520.38,-368.53 1499.38,-368.53 1496.38,-364.53 1436.88,-364.53 1436.88,-325.03 1523.38,-325.03 1523.38,-364.53"/>
<text xml:space="preserve" text-anchor="middle" x="1480.12" y="-347.23" font-family="Arial" font-size="14.00">produits</text>
<text xml:space="preserve" text-anchor="middle" x="1480.12" y="-331.48" font-family="Arial" font-size="14.00">(Catalogue)</text>
</g>
<!-- apiProduits&#45;&gt;tableProduits -->
<g id="edge32" class="edge">
<title>apiProduits&#45;&gt;tableProduits</title>
<path fill="none" stroke="green" d="M788.38,-540.2C939.47,-552.37 1329.18,-574.47 1416.25,-487.78 1452.6,-451.59 1406.28,-416.78 1434.25,-373.78 1434.32,-373.68 1434.38,-373.58 1434.45,-373.48"/>
<polygon fill="green" stroke="green" points="1437.03,-375.84 1440.94,-366 1431.74,-371.26 1437.03,-375.84"/>
<text xml:space="preserve" text-anchor="middle" x="1122.5" y="-554.08" font-family="Arial" font-size="10.00">SELECT</text>
</g>
<!-- apiProduitsPOST&#45;&gt;server -->
<!-- apiProduitsPOST&#45;&gt;tableProduits -->
<g id="edge33" class="edge">
<title>apiProduitsPOST&#45;&gt;tableProduits</title>
<path fill="none" stroke="green" d="M792.91,-433.07C811.72,-436.77 832.36,-440.38 851.5,-442.78 881.98,-446.62 889.8,-445.73 920.5,-446.78 1140.71,-454.37 1243.37,-579.4 1416.25,-442.78 1441.12,-423.13 1415.68,-399.46 1434.25,-373.78 1434.47,-373.47 1434.7,-373.17 1434.94,-372.86"/>
<polygon fill="green" stroke="green" points="1437.29,-375.46 1441.65,-365.8 1432.22,-370.64 1437.29,-375.46"/>
<text xml:space="preserve" text-anchor="middle" x="1122.5" y="-490.5" font-family="Arial" font-size="10.00">INSERT</text>
</g>
<!-- apiProduitsPUT&#45;&gt;server -->
<!-- apiProduitsPUT&#45;&gt;tableProduits -->
<g id="edge34" class="edge">
<title>apiProduitsPUT&#45;&gt;tableProduits</title>
<path fill="none" stroke="green" d="M796.84,-137.98C810.14,-142.3 823.15,-148.6 833.5,-157.78 849.31,-171.81 841.31,-183.28 851.5,-201.78 877.02,-248.13 879.33,-265.56 920.5,-298.78 988.91,-353.98 1016.15,-359.09 1102.25,-376.78 1164.72,-389.62 1034.36,-441.94 1416.25,-367.78 1419.41,-367.17 1422.61,-366.42 1425.82,-365.57"/>
<polygon fill="green" stroke="green" points="1426.64,-368.98 1435.24,-362.79 1424.66,-362.27 1426.64,-368.98"/>
<text xml:space="preserve" text-anchor="middle" x="1122.5" y="-407.87" font-family="Arial" font-size="10.00">UPDATE</text>
</g>
<!-- apiProduitsDEL&#45;&gt;server -->
<!-- apiProduitsDEL&#45;&gt;tableProduits -->
<g id="edge35" class="edge">
<title>apiProduitsDEL&#45;&gt;tableProduits</title>
<path fill="none" stroke="green" d="M809.51,-314.87C818.51,-319.04 826.82,-324.54 833.5,-331.78 862.62,-363.39 818.51,-399.24 851.5,-426.78 866.61,-439.4 1412.34,-429.61 1416.25,-426.78 1436.42,-412.22 1418.95,-393.4 1434.25,-373.78 1434.49,-373.48 1434.72,-373.18 1434.97,-372.89"/>
<polygon fill="green" stroke="green" points="1437.29,-375.51 1441.87,-365.96 1432.33,-370.57 1437.29,-375.51"/>
<text xml:space="preserve" text-anchor="middle" x="1122.5" y="-435.32" font-family="Arial" font-size="10.00">DELETE</text>
</g>
<!-- apiGenFiche&#45;&gt;server -->
<!-- apiGenFiche&#45;&gt;tableProduits -->
<g id="edge40" class="edge">
<title>apiGenFiche&#45;&gt;tableProduits</title>
<path fill="none" stroke="orange" d="M820.97,-361.8C953.2,-362.72 1203.49,-362.46 1416.25,-350.78 1419.23,-350.62 1422.28,-350.42 1425.36,-350.2"/>
<polygon fill="orange" stroke="orange" points="1425.34,-353.72 1435.04,-349.44 1424.79,-346.74 1425.34,-353.72"/>
<text xml:space="preserve" text-anchor="middle" x="1122.5" y="-363.29" font-family="Arial" font-size="10.00">SELECT</text>
</g>
<!-- ficheGenerated -->
<g id="node30" class="node">
<title>ficheGenerated</title>
<path fill="#95a5a6" stroke="black" d="M1055.75,-658.41C1055.75,-658.41 949,-658.41 949,-658.41 943,-658.41 937,-652.41 937,-646.41 937,-646.41 937,-615.16 937,-615.16 937,-609.16 943,-603.16 949,-603.16 949,-603.16 1055.75,-603.16 1055.75,-603.16 1061.75,-603.16 1067.75,-609.16 1067.75,-615.16 1067.75,-615.16 1067.75,-646.41 1067.75,-646.41 1067.75,-652.41 1061.75,-658.41 1055.75,-658.41"/>
<text xml:space="preserve" text-anchor="middle" x="1002.38" y="-641.11" font-family="Arial" font-size="14.00" fill="white">fiches/&lt;categorie&gt;/</text>
<text xml:space="preserve" text-anchor="middle" x="1002.38" y="-625.36" font-family="Arial" font-size="14.00" fill="white">&lt;produit&gt;.html</text>
<text xml:space="preserve" text-anchor="middle" x="1002.38" y="-609.61" font-family="Arial" font-size="14.00" fill="white">(Fichiers statiques)</text>
</g>
<!-- apiGenFiche&#45;&gt;ficheGenerated -->
<g id="edge41" class="edge">
<title>apiGenFiche&#45;&gt;ficheGenerated</title>
<path fill="none" stroke="orange" d="M820.89,-379.29C825.48,-382.3 829.74,-385.77 833.5,-389.78 860.5,-418.59 832.05,-442.42 851.5,-476.78 866.68,-503.61 886.54,-497.41 902.5,-523.78 918.47,-550.16 900.95,-566.94 920.5,-590.78 922.71,-593.48 925.15,-596.01 927.77,-598.39"/>
<polygon fill="orange" stroke="orange" points="925.43,-601 935.44,-604.5 929.8,-595.53 925.43,-601"/>
<text xml:space="preserve" text-anchor="middle" x="877" y="-526.28" font-family="Arial" font-size="10.00">write HTML</text>
</g>
<!-- apiActu&#45;&gt;server -->
<!-- tableActu -->
<g id="node22" class="node">
<title>tableActu</title>
<polygon fill="#f9e79f" stroke="black" points="1516.62,-252.78 1513.62,-256.78 1492.62,-256.78 1489.62,-252.78 1443.62,-252.78 1443.62,-216.78 1516.62,-216.78 1516.62,-252.78"/>
<text xml:space="preserve" text-anchor="middle" x="1480.12" y="-229.36" font-family="Arial" font-size="14.00">actualites</text>
</g>
<!-- apiActu&#45;&gt;tableActu -->
<g id="edge36" class="edge">
<title>apiActu&#45;&gt;tableActu</title>
<path fill="none" stroke="green" d="M820.49,-90.94C825.1,-93.54 829.47,-96.47 833.5,-99.78 841.85,-106.65 911.38,-267.98 920.5,-273.78 982.9,-313.47 1179.65,-287.04 1253.25,-279.78 1315.98,-273.6 1387.1,-257.97 1432.5,-246.87"/>
<polygon fill="green" stroke="green" points="1433.13,-250.32 1441.99,-244.52 1431.44,-243.52 1433.13,-250.32"/>
<text xml:space="preserve" text-anchor="middle" x="1122.5" y="-295.87" font-family="Arial" font-size="10.00">SELECT</text>
</g>
<!-- apiTech&#45;&gt;server -->
<!-- tableTech -->
<g id="node23" class="node">
<title>tableTech</title>
<polygon fill="#f9e79f" stroke="black" points="1526,-306.78 1523,-310.78 1502,-310.78 1499,-306.78 1434.25,-306.78 1434.25,-270.78 1526,-270.78 1526,-306.78"/>
<text xml:space="preserve" text-anchor="middle" x="1480.12" y="-283.36" font-family="Arial" font-size="14.00">technologies</text>
</g>
<!-- apiTech&#45;&gt;tableTech -->
<g id="edge37" class="edge">
<title>apiTech&#45;&gt;tableTech</title>
<path fill="none" stroke="green" d="M823.32,-206.81C827,-209.46 830.42,-212.43 833.5,-215.78 863.15,-248.08 817.9,-284.62 851.5,-312.78 865.98,-324.92 1413.09,-313.38 1416.25,-312.78 1419.43,-312.19 1422.65,-311.44 1425.87,-310.58"/>
<polygon fill="green" stroke="green" points="1426.76,-313.97 1435.32,-307.72 1424.73,-307.27 1426.76,-313.97"/>
<text xml:space="preserve" text-anchor="middle" x="1122.5" y="-320.36" font-family="Arial" font-size="10.00">SELECT</text>
</g>
<!-- apiMarche&#45;&gt;server -->
<!-- tableMarche -->
<g id="node24" class="node">
<title>tableMarche</title>
<polygon fill="#f9e79f" stroke="black" points="1511,-418.78 1508,-422.78 1487,-422.78 1484,-418.78 1449.25,-418.78 1449.25,-382.78 1511,-382.78 1511,-418.78"/>
<text xml:space="preserve" text-anchor="middle" x="1480.12" y="-395.36" font-family="Arial" font-size="14.00">marche</text>
</g>
<!-- apiMarche&#45;&gt;tableMarche -->
<g id="edge38" class="edge">
<title>apiMarche&#45;&gt;tableMarche</title>
<path fill="none" stroke="green" d="M818.94,-261.37C824.35,-264.8 829.3,-268.9 833.5,-273.78 877.3,-324.67 821.55,-363.69 851.5,-423.78 865.52,-451.92 889.02,-444.39 902.5,-472.78 923.72,-517.5 884.11,-661.23 920.5,-694.78 976.61,-746.53 1016.87,-706.8 1092.25,-694.78 1241.87,-670.93 1320.63,-706.31 1416.25,-588.78 1461.69,-532.93 1395.38,-488.39 1434.25,-427.78 1435.84,-425.31 1437.74,-423.02 1439.86,-420.93"/>
<polygon fill="green" stroke="green" points="1442.04,-423.66 1447.66,-414.68 1437.66,-418.2 1442.04,-423.66"/>
<text xml:space="preserve" text-anchor="middle" x="1122.5" y="-695.72" font-family="Arial" font-size="10.00">SELECT</text>
</g>
<!-- apiTendances&#45;&gt;server -->
<!-- tableTend -->
<g id="node25" class="node">
<title>tableTend</title>
<polygon fill="#f9e79f" stroke="black" points="1519.25,-472.78 1516.25,-476.78 1495.25,-476.78 1492.25,-472.78 1441,-472.78 1441,-436.78 1519.25,-436.78 1519.25,-472.78"/>
<text xml:space="preserve" text-anchor="middle" x="1480.12" y="-449.36" font-family="Arial" font-size="14.00">tendances</text>
</g>
<!-- apiTendances&#45;&gt;tableTend -->
<g id="edge39" class="edge">
<title>apiTendances&#45;&gt;tableTend</title>
<path fill="none" stroke="green" d="M795.52,-485.49C809.3,-489.82 822.83,-496.25 833.5,-505.78 852.87,-523.09 899.06,-708.11 920.5,-722.78 962.99,-751.87 1381.43,-750.59 1416.25,-722.78 1453.44,-693.09 1470.82,-547.39 1476.7,-484.16"/>
<polygon fill="green" stroke="green" points="1480.16,-484.79 1477.56,-474.52 1473.19,-484.17 1480.16,-484.79"/>
<text xml:space="preserve" text-anchor="middle" x="1122.5" y="-746.48" font-family="Arial" font-size="10.00">SELECT</text>
</g>
<!-- db&#45;&gt;tableProduits -->
<!-- db&#45;&gt;tableActu -->
<!-- db&#45;&gt;tableTech -->
<!-- db&#45;&gt;tableMarche -->
<!-- db&#45;&gt;tableTend -->
<!-- scriptAdd -->
<g id="node26" class="node">
<title>scriptAdd</title>
<path fill="#e67e22" stroke="black" d="M457.5,-74.53C457.5,-74.53 344,-74.53 344,-74.53 338,-74.53 332,-68.53 332,-62.53 332,-62.53 332,-47.03 332,-47.03 332,-41.03 338,-35.03 344,-35.03 344,-35.03 457.5,-35.03 457.5,-35.03 463.5,-35.03 469.5,-41.03 469.5,-47.03 469.5,-47.03 469.5,-62.53 469.5,-62.53 469.5,-68.53 463.5,-74.53 457.5,-74.53"/>
<text xml:space="preserve" text-anchor="middle" x="400.75" y="-57.23" font-family="Arial" font-size="14.00" fill="white">add&#45;new&#45;products.js</text>
<text xml:space="preserve" text-anchor="middle" x="400.75" y="-41.48" font-family="Arial" font-size="14.00" fill="white">(Insert produits)</text>
</g>
<!-- scriptAdd&#45;&gt;server -->
<g id="edge42" class="edge">
<title>scriptAdd&#45;&gt;server</title>
<path fill="none" stroke="red" d="M461.45,-34.59C547.79,-8.99 710.62,25.57 833.5,-29.78 914.19,-66.13 966.53,-163.97 988.91,-214.17"/>
<polygon fill="red" stroke="red" points="985.68,-215.52 992.87,-223.3 992.11,-212.73 985.68,-215.52"/>
<text xml:space="preserve" text-anchor="middle" x="727.25" y="-32.28" font-family="Arial" font-size="10.00">Direct DB insert</text>
</g>
<!-- scriptGen -->
<g id="node27" class="node">
<title>scriptGen</title>
<path fill="#e67e22" stroke="black" d="M473.62,-248.53C473.62,-248.53 327.88,-248.53 327.88,-248.53 321.88,-248.53 315.88,-242.53 315.88,-236.53 315.88,-236.53 315.88,-221.03 315.88,-221.03 315.88,-215.03 321.88,-209.03 327.88,-209.03 327.88,-209.03 473.62,-209.03 473.62,-209.03 479.62,-209.03 485.62,-215.03 485.62,-221.03 485.62,-221.03 485.62,-236.53 485.62,-236.53 485.62,-242.53 479.62,-248.53 473.62,-248.53"/>
<text xml:space="preserve" text-anchor="middle" x="400.75" y="-231.23" font-family="Arial" font-size="14.00" fill="white">generate&#45;all&#45;new&#45;fiches.js</text>
<text xml:space="preserve" text-anchor="middle" x="400.75" y="-215.48" font-family="Arial" font-size="14.00" fill="white">(Génère fiches via API)</text>
</g>
<!-- scriptGen&#45;&gt;apiGenFiche -->
<g id="edge43" class="edge">
<title>scriptGen&#45;&gt;apiGenFiche</title>
<path fill="none" stroke="red" d="M485.95,-225.1C533.37,-224.96 586.36,-228.72 603,-244.78 631,-271.82 587.42,-302.45 613,-331.78 616.23,-335.48 619.85,-338.74 623.78,-341.61"/>
<polygon fill="red" stroke="red" points="621.8,-344.5 632.14,-346.82 625.51,-338.56 621.8,-344.5"/>
<text xml:space="preserve" text-anchor="middle" x="561.38" y="-247.28" font-family="Arial" font-size="10.00">HTTP POST</text>
</g>
<!-- scriptRegen -->
<g id="node28" class="node">
<title>scriptRegen</title>
<path fill="#e67e22" stroke="black" d="M465,-190.53C465,-190.53 336.5,-190.53 336.5,-190.53 330.5,-190.53 324.5,-184.53 324.5,-178.53 324.5,-178.53 324.5,-163.03 324.5,-163.03 324.5,-157.03 330.5,-151.03 336.5,-151.03 336.5,-151.03 465,-151.03 465,-151.03 471,-151.03 477,-157.03 477,-163.03 477,-163.03 477,-178.53 477,-178.53 477,-184.53 471,-190.53 465,-190.53"/>
<text xml:space="preserve" text-anchor="middle" x="400.75" y="-173.23" font-family="Arial" font-size="14.00" fill="white">regenerate&#45;all&#45;fiches.js</text>
<text xml:space="preserve" text-anchor="middle" x="400.75" y="-157.48" font-family="Arial" font-size="14.00" fill="white">(Regénère toutes)</text>
</g>
<!-- scriptRegen&#45;&gt;apiGenFiche -->
<g id="edge44" class="edge">
<title>scriptRegen&#45;&gt;apiGenFiche</title>
<path fill="none" stroke="red" d="M477.31,-180.96C530.75,-188.9 594.38,-200.16 603,-209.78 621.15,-230.04 595.46,-311 613,-331.78 616.2,-335.58 619.83,-338.91 623.77,-341.84"/>
<polygon fill="red" stroke="red" points="621.86,-344.78 632.19,-347.15 625.6,-338.86 621.86,-344.78"/>
<text xml:space="preserve" text-anchor="middle" x="561.38" y="-212.28" font-family="Arial" font-size="10.00">HTTP POST (loop)</text>
</g>
<!-- scriptTop -->
<g id="node29" class="node">
<title>scriptTop</title>
<path fill="#e67e22" stroke="black" d="M462,-132.53C462,-132.53 339.5,-132.53 339.5,-132.53 333.5,-132.53 327.5,-126.53 327.5,-120.53 327.5,-120.53 327.5,-105.03 327.5,-105.03 327.5,-99.03 333.5,-93.03 339.5,-93.03 339.5,-93.03 462,-93.03 462,-93.03 468,-93.03 474,-99.03 474,-105.03 474,-105.03 474,-120.53 474,-120.53 474,-126.53 468,-132.53 462,-132.53"/>
<text xml:space="preserve" text-anchor="middle" x="400.75" y="-115.23" font-family="Arial" font-size="14.00" fill="white">set&#45;top&#45;decembre.js</text>
<text xml:space="preserve" text-anchor="middle" x="400.75" y="-99.48" font-family="Arial" font-size="14.00" fill="white">(Toggle top_du_mois)</text>
</g>
<!-- scriptTop&#45;&gt;apiProduitsPUT -->
<g id="edge45" class="edge">
<title>scriptTop&#45;&gt;apiProduitsPUT</title>
<path fill="none" stroke="red" d="M474.07,-105.17C512.45,-102.33 560.36,-100.67 603,-104.78 617.27,-106.16 632.33,-108.41 646.85,-111"/>
<polygon fill="red" stroke="red" points="645.86,-114.38 656.33,-112.76 647.14,-107.49 645.86,-114.38"/>
<text xml:space="preserve" text-anchor="middle" x="561.38" y="-107.28" font-family="Arial" font-size="10.00">HTTP PUT</text>
</g>
<!-- legend -->
<g id="node31" class="node">
<title>legend</title>
<path fill="white" stroke="black" d="M1404.25,-879.91C1404.25,-879.91 1283.25,-879.91 1283.25,-879.91 1277.25,-879.91 1271.25,-873.91 1271.25,-867.91 1271.25,-867.91 1271.25,-773.66 1271.25,-773.66 1271.25,-767.66 1277.25,-761.66 1283.25,-761.66 1283.25,-761.66 1404.25,-761.66 1404.25,-761.66 1410.25,-761.66 1416.25,-767.66 1416.25,-773.66 1416.25,-773.66 1416.25,-867.91 1416.25,-867.91 1416.25,-873.91 1410.25,-879.91 1404.25,-879.91"/>
<text xml:space="preserve" text-anchor="middle" x="1343.75" y="-862.61" font-family="Arial" font-size="14.00">Légende:</text>
<text xml:space="preserve" text-anchor="middle" x="1343.75" y="-846.86" font-family="Arial" font-size="14.00">Bleu = Pages HTML</text>
<text xml:space="preserve" text-anchor="middle" x="1343.75" y="-831.11" font-family="Arial" font-size="14.00">Violet = JavaScript</text>
<text xml:space="preserve" text-anchor="middle" x="1343.75" y="-815.36" font-family="Arial" font-size="14.00">Vert = API/Backend</text>
<text xml:space="preserve" text-anchor="middle" x="1343.75" y="-799.61" font-family="Arial" font-size="14.00">Jaune = Database</text>
<text xml:space="preserve" text-anchor="middle" x="1343.75" y="-783.86" font-family="Arial" font-size="14.00">Orange = Génération</text>
<text xml:space="preserve" text-anchor="middle" x="1343.75" y="-768.11" font-family="Arial" font-size="14.00">Rouge = Scripts</text>
</g>
</g>
</svg>
