<?xml version="1.0" encoding="UTF-8" standalone="no"?>
<!DOCTYPE svg PUBLIC "-//W3C//DTD SVG 1.1//EN"
 "http://www.w3.org/Graphics/SVG/1.1/DTD/svg11.dtd">
<!-- Generated by graphviz version 14.1.1 (20251213.1925)
 -->
<!-- Title: G Pages: 1 -->
<svg width="340pt" height="991pt"
 viewBox="0.00 0.00 340.00 991.00" xmlns="http://www.w3.org/2000/svg" xmlns:xlink="http://www.w3.org/1999/xlink">
<g id="graph0" class="graph" transform="scale(1 1) rotate(0) translate(21.6 969.35)">
<title>G</title>
<polygon fill="#111111" stroke="none" points="-21.6,21.6 -21.6,-969.35 318.85,-969.35 318.85,21.6 -21.6,21.6"/>
<!-- public/assets/js/admin&#45;functions.js -->
<g id="node1" class="node">
<title>public/assets/js/admin&#45;functions.js</title>
<path fill="none" stroke="#cfffac" d="M251.08,-23.75C251.08,-23.75 46.17,-23.75 46.17,-23.75 42.21,-23.75 38.25,-19.79 38.25,-15.83 38.25,-15.83 38.25,-7.92 38.25,-7.92 38.25,-3.96 42.21,0 46.17,0 46.17,0 251.08,0 251.08,0 255.04,0 259,-3.96 259,-7.92 259,-7.92 259,-15.83 259,-15.83 259,-19.79 255.04,-23.75 251.08,-23.75"/>
<text xml:space="preserve" text-anchor="middle" x="148.62" y="-6.45" font-family="Arial" font-size="14.00" fill="#cfffac">public/assets/js/admin&#45;functions.js</text>
</g>
<!-- public/assets/js/admin&#45;gestion&#45;produits.js -->
<g id="node2" class="node">
<title>public/assets/js/admin&#45;gestion&#45;produits.js</title>
<path fill="none" stroke="#cfffac" d="M272.08,-65.75C272.08,-65.75 25.17,-65.75 25.17,-65.75 21.21,-65.75 17.25,-61.79 17.25,-57.83 17.25,-57.83 17.25,-49.92 17.25,-49.92 17.25,-45.96 21.21,-42 25.17,-42 25.17,-42 272.08,-42 272.08,-42 276.04,-42 280,-45.96 280,-49.92 280,-49.92 280,-57.83 280,-57.83 280,-61.79 276.04,-65.75 272.08,-65.75"/>
<text xml:space="preserve" text-anchor="middle" x="148.62" y="-48.45" font-family="Arial" font-size="14.00" fill="#cfffac">public/assets/js/admin&#45;gestion&#45;produits.js</text>
</g>
<!-- public/assets/js/admin&#45;gestion&#45;produits.ok.js -->
<g id="node3" class="node">
<title>public/assets/js/admin&#45;gestion&#45;produits.ok.js</title>
<path fill="none" stroke="#cfffac" d="M281.08,-107.75C281.08,-107.75 16.17,-107.75 16.17,-107.75 12.21,-107.75 8.25,-103.79 8.25,-99.83 8.25,-99.83 8.25,-91.92 8.25,-91.92 8.25,-87.96 12.21,-84 16.17,-84 16.17,-84 281.08,-84 281.08,-84 285.04,-84 289,-87.96 289,-91.92 289,-91.92 289,-99.83 289,-99.83 289,-103.79 285.04,-107.75 281.08,-107.75"/>
<text xml:space="preserve" text-anchor="middle" x="148.62" y="-90.45" font-family="Arial" font-size="14.00" fill="#cfffac">public/assets/js/admin&#45;gestion&#45;produits.ok.js</text>
</g>
<!-- public/assets/js/admin&#45;postgres.js -->
<g id="node4" class="node">
<title>public/assets/js/admin&#45;postgres.js</title>
<path fill="none" stroke="#cfffac" d="M249.96,-149.75C249.96,-149.75 47.29,-149.75 47.29,-149.75 43.33,-149.75 39.37,-145.79 39.37,-141.83 39.37,-141.83 39.37,-133.92 39.37,-133.92 39.37,-129.96 43.33,-126 47.29,-126 47.29,-126 249.96,-126 249.96,-126 253.92,-126 257.88,-129.96 257.88,-133.92 257.88,-133.92 257.88,-141.83 257.88,-141.83 257.88,-145.79 253.92,-149.75 249.96,-149.75"/>
<text xml:space="preserve" text-anchor="middle" x="148.62" y="-132.45" font-family="Arial" font-size="14.00" fill="#cfffac">public/assets/js/admin&#45;postgres.js</text>
</g>
<!-- public/assets/js/admin&#45;tendances&#45;dashboard.js -->
<g id="node5" class="node">
<title>public/assets/js/admin&#45;tendances&#45;dashboard.js</title>
<path fill="none" stroke="#cfffac" d="M289.33,-191.75C289.33,-191.75 7.92,-191.75 7.92,-191.75 3.96,-191.75 0,-187.79 0,-183.83 0,-183.83 0,-175.92 0,-175.92 0,-171.96 3.96,-168 7.92,-168 7.92,-168 289.33,-168 289.33,-168 293.29,-168 297.25,-171.96 297.25,-175.92 297.25,-175.92 297.25,-183.83 297.25,-183.83 297.25,-187.79 293.29,-191.75 289.33,-191.75"/>
<text xml:space="preserve" text-anchor="middle" x="148.62" y="-174.45" font-family="Arial" font-size="14.00" fill="#cfffac">public/assets/js/admin&#45;tendances&#45;dashboard.js</text>
</g>
<!-- public/assets/js/cache&#45;manager.js -->
<g id="node6" class="node">
<title>public/assets/js/cache&#45;manager.js</title>
<path fill="none" stroke="#cfffac" d="M249.96,-233.75C249.96,-233.75 47.29,-233.75 47.29,-233.75 43.33,-233.75 39.37,-229.79 39.37,-225.83 39.37,-225.83 39.37,-217.92 39.37,-217.92 39.37,-213.96 43.33,-210 47.29,-210 47.29,-210 249.96,-210 249.96,-210 253.92,-210 257.88,-213.96 257.88,-217.92 257.88,-217.92 257.88,-225.83 257.88,-225.83 257.88,-229.79 253.92,-233.75 249.96,-233.75"/>
<text xml:space="preserve" text-anchor="middle" x="148.62" y="-216.45" font-family="Arial" font-size="14.00" fill="#cfffac">public/assets/js/cache&#45;manager.js</text>
</g>
<!-- public/assets/js/comparatif&#45;produits.js -->
<g id="node7" class="node">
<title>public/assets/js/comparatif&#45;produits.js</title>
<path fill="none" stroke="#cfffac" d="M261.21,-275.75C261.21,-275.75 36.04,-275.75 36.04,-275.75 32.08,-275.75 28.12,-271.79 28.12,-267.83 28.12,-267.83 28.12,-259.92 28.12,-259.92 28.12,-255.96 32.08,-252 36.04,-252 36.04,-252 261.21,-252 261.21,-252 265.17,-252 269.12,-255.96 269.12,-259.92 269.12,-259.92 269.12,-267.83 269.12,-267.83 269.12,-271.79 265.17,-275.75 261.21,-275.75"/>
<text xml:space="preserve" text-anchor="middle" x="148.62" y="-258.45" font-family="Arial" font-size="14.00" fill="#cfffac">public/assets/js/comparatif&#45;produits.js</text>
</g>
<!-- public/assets/js/fiche&#45;produit.js -->
<g id="node8" class="node">
<title>public/assets/js/fiche&#45;produit.js</title>
<path fill="none" stroke="#cfffac" d="M240.21,-317.75C240.21,-317.75 57.04,-317.75 57.04,-317.75 53.08,-317.75 49.12,-313.79 49.12,-309.83 49.12,-309.83 49.12,-301.92 49.12,-301.92 49.12,-297.96 53.08,-294 57.04,-294 57.04,-294 240.21,-294 240.21,-294 244.17,-294 248.12,-297.96 248.12,-301.92 248.12,-301.92 248.12,-309.83 248.12,-309.83 248.12,-313.79 244.17,-317.75 240.21,-317.75"/>
<text xml:space="preserve" text-anchor="middle" x="148.62" y="-300.45" font-family="Arial" font-size="14.00" fill="#cfffac">public/assets/js/fiche&#45;produit.js</text>
</g>
<!-- public/assets/js/fiche&#45;produit.min.js -->
<g id="node9" class="node">
<title>public/assets/js/fiche&#45;produit.min.js</title>
<path fill="none" stroke="#cfffac" d="M253.33,-359.75C253.33,-359.75 43.92,-359.75 43.92,-359.75 39.96,-359.75 36,-355.79 36,-351.83 36,-351.83 36,-343.92 36,-343.92 36,-339.96 39.96,-336 43.92,-336 43.92,-336 253.33,-336 253.33,-336 257.29,-336 261.25,-339.96 261.25,-343.92 261.25,-343.92 261.25,-351.83 261.25,-351.83 261.25,-355.79 257.29,-359.75 253.33,-359.75"/>
<text xml:space="preserve" text-anchor="middle" x="148.62" y="-342.45" font-family="Arial" font-size="14.00" fill="#cfffac">public/assets/js/fiche&#45;produit.min.js</text>
</g>
<!-- public/assets/js/fiches.js -->
<g id="node10" class="node">
<title>public/assets/js/fiches.js</title>
<path fill="none" stroke="#cfffac" d="M220.71,-401.75C220.71,-401.75 76.54,-401.75 76.54,-401.75 72.58,-401.75 68.62,-397.79 68.62,-393.83 68.62,-393.83 68.62,-385.92 68.62,-385.92 68.62,-381.96 72.58,-378 76.54,-378 76.54,-378 220.71,-378 220.71,-378 224.67,-378 228.62,-381.96 228.62,-385.92 228.62,-385.92 228.62,-393.83 228.62,-393.83 228.62,-397.79 224.67,-401.75 220.71,-401.75"/>
<text xml:space="preserve" text-anchor="middle" x="148.62" y="-384.45" font-family="Arial" font-size="14.00" fill="#cfffac">public/assets/js/fiches.js</text>
</g>
<!-- public/assets/js/fiches.min.js -->
<g id="node11" class="node">
<title>public/assets/js/fiches.min.js</title>
<path fill="none" stroke="#cfffac" d="M233.83,-443.75C233.83,-443.75 63.42,-443.75 63.42,-443.75 59.46,-443.75 55.5,-439.79 55.5,-435.83 55.5,-435.83 55.5,-427.92 55.5,-427.92 55.5,-423.96 59.46,-420 63.42,-420 63.42,-420 233.83,-420 233.83,-420 237.79,-420 241.75,-423.96 241.75,-427.92 241.75,-427.92 241.75,-435.83 241.75,-435.83 241.75,-439.79 237.79,-443.75 233.83,-443.75"/>
<text xml:space="preserve" text-anchor="middle" x="148.62" y="-426.45" font-family="Arial" font-size="14.00" fill="#cfffac">public/assets/js/fiches.min.js</text>
</g>
<!-- public/assets/js/home.js -->
<g id="node12" class="node">
<title>public/assets/js/home.js</title>
<path fill="none" stroke="#cfffac" d="M220.33,-485.75C220.33,-485.75 76.92,-485.75 76.92,-485.75 72.96,-485.75 69,-481.79 69,-477.83 69,-477.83 69,-469.92 69,-469.92 69,-465.96 72.96,-462 76.92,-462 76.92,-462 220.33,-462 220.33,-462 224.29,-462 228.25,-465.96 228.25,-469.92 228.25,-469.92 228.25,-477.83 228.25,-477.83 228.25,-481.79 224.29,-485.75 220.33,-485.75"/>
<text xml:space="preserve" text-anchor="middle" x="148.62" y="-468.45" font-family="Arial" font-size="14.00" fill="#cfffac">public/assets/js/home.js</text>
</g>
<!-- public/assets/js/lazy&#45;loading.js -->
<g id="node13" class="node">
<title>public/assets/js/lazy&#45;loading.js</title>
<path fill="none" stroke="#cfffac" d="M239.08,-527.75C239.08,-527.75 58.17,-527.75 58.17,-527.75 54.21,-527.75 50.25,-523.79 50.25,-519.83 50.25,-519.83 50.25,-511.92 50.25,-511.92 50.25,-507.96 54.21,-504 58.17,-504 58.17,-504 239.08,-504 239.08,-504 243.04,-504 247,-507.96 247,-511.92 247,-511.92 247,-519.83 247,-519.83 247,-523.79 243.04,-527.75 239.08,-527.75"/>
<text xml:space="preserve" text-anchor="middle" x="148.62" y="-510.45" font-family="Arial" font-size="14.00" fill="#cfffac">public/assets/js/lazy&#45;loading.js</text>
</g>
<!-- public/assets/js/stats.js -->
<g id="node14" class="node">
<title>public/assets/js/stats.js</title>
<path fill="none" stroke="#cfffac" d="M217.33,-569.75C217.33,-569.75 79.92,-569.75 79.92,-569.75 75.96,-569.75 72,-565.79 72,-561.83 72,-561.83 72,-553.92 72,-553.92 72,-549.96 75.96,-546 79.92,-546 79.92,-546 217.33,-546 217.33,-546 221.29,-546 225.25,-549.96 225.25,-553.92 225.25,-553.92 225.25,-561.83 225.25,-561.83 225.25,-565.79 221.29,-569.75 217.33,-569.75"/>
<text xml:space="preserve" text-anchor="middle" x="148.62" y="-552.45" font-family="Arial" font-size="14.00" fill="#cfffac">public/assets/js/stats.js</text>
</g>
<!-- public/assets/js/sw.js -->
<g id="node15" class="node">
<title>public/assets/js/sw.js</title>
<path fill="none" stroke="#cfffac" d="M210.96,-611.75C210.96,-611.75 86.29,-611.75 86.29,-611.75 82.33,-611.75 78.38,-607.79 78.38,-603.83 78.38,-603.83 78.38,-595.92 78.38,-595.92 78.38,-591.96 82.33,-588 86.29,-588 86.29,-588 210.96,-588 210.96,-588 214.92,-588 218.88,-591.96 218.88,-595.92 218.88,-595.92 218.88,-603.83 218.88,-603.83 218.88,-607.79 214.92,-611.75 210.96,-611.75"/>
<text xml:space="preserve" text-anchor="middle" x="148.62" y="-594.45" font-family="Arial" font-size="14.00" fill="#cfffac">public/assets/js/sw.js</text>
</g>
<!-- public/assets/js/tendances copy.js -->
<g id="node16" class="node">
<title>public/assets/js/tendances copy.js</title>
<path fill="none" stroke="#cfffac" d="M249.96,-653.75C249.96,-653.75 47.29,-653.75 47.29,-653.75 43.33,-653.75 39.37,-649.79 39.37,-645.83 39.37,-645.83 39.37,-637.92 39.37,-637.92 39.37,-633.96 43.33,-630 47.29,-630 47.29,-630 249.96,-630 249.96,-630 253.92,-630 257.88,-633.96 257.88,-637.92 257.88,-637.92 257.88,-645.83 257.88,-645.83 257.88,-649.79 253.92,-653.75 249.96,-653.75"/>
<text xml:space="preserve" text-anchor="middle" x="148.62" y="-636.45" font-family="Arial" font-size="14.00" fill="#cfffac">public/assets/js/tendances copy.js</text>
</g>
<!-- public/assets/js/tendances.&#45;sans&#45;api.js -->
<g id="node17" class="node">
<title>public/assets/js/tendances.&#45;sans&#45;api.js</title>
<path fill="none" stroke="#cfffac" d="M263.83,-695.75C263.83,-695.75 33.42,-695.75 33.42,-695.75 29.46,-695.75 25.5,-691.79 25.5,-687.83 25.5,-687.83 25.5,-679.92 25.5,-679.92 25.5,-675.96 29.46,-672 33.42,-672 33.42,-672 263.83,-672 263.83,-672 267.79,-672 271.75,-675.96 271.75,-679.92 271.75,-679.92 271.75,-687.83 271.75,-687.83 271.75,-691.79 267.79,-695.75 263.83,-695.75"/>
<text xml:space="preserve" text-anchor="middle" x="148.62" y="-678.45" font-family="Arial" font-size="14.00" fill="#cfffac">public/assets/js/tendances.&#45;sans&#45;api.js</text>
</g>
<!-- public/assets/js/tendances.js -->
<g id="node18" class="node">
<title>public/assets/js/tendances.js</title>
<path fill="none" stroke="#cfffac" d="M234.21,-737.75C234.21,-737.75 63.04,-737.75 63.04,-737.75 59.08,-737.75 55.12,-733.79 55.12,-729.83 55.12,-729.83 55.12,-721.92 55.12,-721.92 55.12,-717.96 59.08,-714 63.04,-714 63.04,-714 234.21,-714 234.21,-714 238.17,-714 242.12,-717.96 242.12,-721.92 242.12,-721.92 242.12,-729.83 242.12,-729.83 242.12,-733.79 238.17,-737.75 234.21,-737.75"/>
<text xml:space="preserve" text-anchor="middle" x="148.62" y="-720.45" font-family="Arial" font-size="14.00" fill="#cfffac">public/assets/js/tendances.js</text>
</g>
<!-- public/assets/js/tendances.min.js -->
<g id="node19" class="node">
<title>public/assets/js/tendances.min.js</title>
<path fill="none" stroke="#cfffac" d="M247.33,-779.75C247.33,-779.75 49.92,-779.75 49.92,-779.75 45.96,-779.75 42,-775.79 42,-771.83 42,-771.83 42,-763.92 42,-763.92 42,-759.96 45.96,-756 49.92,-756 49.92,-756 247.33,-756 247.33,-756 251.29,-756 255.25,-759.96 255.25,-763.92 255.25,-763.92 255.25,-771.83 255.25,-771.83 255.25,-775.79 251.29,-779.75 247.33,-779.75"/>
<text xml:space="preserve" text-anchor="middle" x="148.62" y="-762.45" font-family="Arial" font-size="14.00" fill="#cfffac">public/assets/js/tendances.min.js</text>
</g>
<!-- public/assets/js/tendancesold.js -->
<g id="node20" class="node">
<title>public/assets/js/tendancesold.js</title>
<path fill="none" stroke="#cfffac" d="M243.21,-821.75C243.21,-821.75 54.04,-821.75 54.04,-821.75 50.08,-821.75 46.12,-817.79 46.12,-813.83 46.12,-813.83 46.12,-805.92 46.12,-805.92 46.12,-801.96 50.08,-798 54.04,-798 54.04,-798 243.21,-798 243.21,-798 247.17,-798 251.12,-801.96 251.12,-805.92 251.12,-805.92 251.12,-813.83 251.12,-813.83 251.12,-817.79 247.17,-821.75 243.21,-821.75"/>
<text xml:space="preserve" text-anchor="middle" x="148.62" y="-804.45" font-family="Arial" font-size="14.00" fill="#cfffac">public/assets/js/tendancesold.js</text>
</g>
<!-- public/assets/js/theme&#45;toggle.js -->
<g id="node21" class="node">
<title>public/assets/js/theme&#45;toggle.js</title>
<path fill="none" stroke="#cfffac" d="M242.83,-863.75C242.83,-863.75 54.42,-863.75 54.42,-863.75 50.46,-863.75 46.5,-859.79 46.5,-855.83 46.5,-855.83 46.5,-847.92 46.5,-847.92 46.5,-843.96 50.46,-840 54.42,-840 54.42,-840 242.83,-840 242.83,-840 246.79,-840 250.75,-843.96 250.75,-847.92 250.75,-847.92 250.75,-855.83 250.75,-855.83 250.75,-859.79 246.79,-863.75 242.83,-863.75"/>
<text xml:space="preserve" text-anchor="middle" x="148.62" y="-846.45" font-family="Arial" font-size="14.00" fill="#cfffac">public/assets/js/theme&#45;toggle.js</text>
</g>
<!-- public/assets/js/top&#45;du&#45;mois.js -->
<g id="node22" class="node">
<title>public/assets/js/top&#45;du&#45;mois.js</title>
<path fill="none" stroke="#cfffac" d="M239.08,-905.75C239.08,-905.75 58.17,-905.75 58.17,-905.75 54.21,-905.75 50.25,-901.79 50.25,-897.83 50.25,-897.83 50.25,-889.92 50.25,-889.92 50.25,-885.96 54.21,-882 58.17,-882 58.17,-882 239.08,-882 239.08,-882 243.04,-882 247,-885.96 247,-889.92 247,-889.92 247,-897.83 247,-897.83 247,-901.79 243.04,-905.75 239.08,-905.75"/>
<text xml:space="preserve" text-anchor="middle" x="148.62" y="-888.45" font-family="Arial" font-size="14.00" fill="#cfffac">public/assets/js/top&#45;du&#45;mois.js</text>
</g>
<!-- public/assets/js/utils.js -->
<g id="node23" class="node">
<title>public/assets/js/utils.js</title>
<path fill="none" stroke="#cfffac" d="M215.08,-947.75C215.08,-947.75 82.17,-947.75 82.17,-947.75 78.21,-947.75 74.25,-943.79 74.25,-939.83 74.25,-939.83 74.25,-931.92 74.25,-931.92 74.25,-927.96 78.21,-924 82.17,-924 82.17,-924 215.08,-924 215.08,-924 219.04,-924 223,-927.96 223,-931.92 223,-931.92 223,-939.83 223,-939.83 223,-943.79 219.04,-947.75 215.08,-947.75"/>
<text xml:space="preserve" text-anchor="middle" x="148.62" y="-930.45" font-family="Arial" font-size="14.00" fill="#cfffac">public/assets/js/utils.js</text>
</g>
</g>
</svg>
