<?xml version="1.0" encoding="UTF-8" standalone="no"?>
<!DOCTYPE svg PUBLIC "-//W3C//DTD SVG 1.1//EN"
 "http://www.w3.org/Graphics/SVG/1.1/DTD/svg11.dtd">
<!-- Generated by graphviz version 14.1.1 (20251213.1925)
 -->
<!-- Title: G Pages: 1 -->
<svg width="394pt" height="3679pt"
 viewBox="0.00 0.00 394.00 3679.00" xmlns="http://www.w3.org/2000/svg" xmlns:xlink="http://www.w3.org/1999/xlink">
<g id="graph0" class="graph" transform="scale(1 1) rotate(0) translate(21.6 3657.35)">
<title>G</title>
<polygon fill="#111111" stroke="none" points="-21.6,21.6 -21.6,-3657.35 372.1,-3657.35 372.1,21.6 -21.6,21.6"/>
<!-- check&#45;prod1.js -->
<g id="node1" class="node">
<title>check&#45;prod1.js</title>
<path fill="none" stroke="#cfffac" d="M219.21,-23.75C219.21,-23.75 131.29,-23.75 131.29,-23.75 127.33,-23.75 123.38,-19.79 123.38,-15.83 123.38,-15.83 123.38,-7.92 123.38,-7.92 123.38,-3.96 127.33,0 131.29,0 131.29,0 219.21,0 219.21,0 223.17,0 227.12,-3.96 227.12,-7.92 227.12,-7.92 227.12,-15.83 227.12,-15.83 227.12,-19.79 223.17,-23.75 219.21,-23.75"/>
<text xml:space="preserve" text-anchor="middle" x="175.25" y="-6.45" font-family="Arial" font-size="14.00" fill="#cfffac">check&#45;prod1.js</text>
</g>
<!-- frontend/public/assets/js/admin&#45;functions.js -->
<g id="node2" class="node">
<title>frontend/public/assets/js/admin&#45;functions.js</title>
<path fill="none" stroke="#cfffac" d="M304.33,-65.75C304.33,-65.75 46.17,-65.75 46.17,-65.75 42.21,-65.75 38.25,-61.79 38.25,-57.83 38.25,-57.83 38.25,-49.92 38.25,-49.92 38.25,-45.96 42.21,-42 46.17,-42 46.17,-42 304.33,-42 304.33,-42 308.29,-42 312.25,-45.96 312.25,-49.92 312.25,-49.92 312.25,-57.83 312.25,-57.83 312.25,-61.79 308.29,-65.75 304.33,-65.75"/>
<text xml:space="preserve" text-anchor="middle" x="175.25" y="-48.45" font-family="Arial" font-size="14.00" fill="#cfffac">frontend/public/assets/js/admin&#45;functions.js</text>
</g>
<!-- frontend/public/assets/js/admin&#45;gestion&#45;produits.js -->
<g id="node3" class="node">
<title>frontend/public/assets/js/admin&#45;gestion&#45;produits.js</title>
<path fill="none" stroke="#cfffac" d="M325.33,-107.75C325.33,-107.75 25.17,-107.75 25.17,-107.75 21.21,-107.75 17.25,-103.79 17.25,-99.83 17.25,-99.83 17.25,-91.92 17.25,-91.92 17.25,-87.96 21.21,-84 25.17,-84 25.17,-84 325.33,-84 325.33,-84 329.29,-84 333.25,-87.96 333.25,-91.92 333.25,-91.92 333.25,-99.83 333.25,-99.83 333.25,-103.79 329.29,-107.75 325.33,-107.75"/>
<text xml:space="preserve" text-anchor="middle" x="175.25" y="-90.45" font-family="Arial" font-size="14.00" fill="#cfffac">frontend/public/assets/js/admin&#45;gestion&#45;produits.js</text>
</g>
<!-- frontend/public/assets/js/admin&#45;gestion&#45;produits.ok.js -->
<g id="node4" class="node">
<title>frontend/public/assets/js/admin&#45;gestion&#45;produits.ok.js</title>
<path fill="none" stroke="#cfffac" d="M334.33,-149.75C334.33,-149.75 16.17,-149.75 16.17,-149.75 12.21,-149.75 8.25,-145.79 8.25,-141.83 8.25,-141.83 8.25,-133.92 8.25,-133.92 8.25,-129.96 12.21,-126 16.17,-126 16.17,-126 334.33,-126 334.33,-126 338.29,-126 342.25,-129.96 342.25,-133.92 342.25,-133.92 342.25,-141.83 342.25,-141.83 342.25,-145.79 338.29,-149.75 334.33,-149.75"/>
<text xml:space="preserve" text-anchor="middle" x="175.25" y="-132.45" font-family="Arial" font-size="14.00" fill="#cfffac">frontend/public/assets/js/admin&#45;gestion&#45;produits.ok.js</text>
</g>
<!-- frontend/public/assets/js/admin&#45;postgres.js -->
<g id="node5" class="node">
<title>frontend/public/assets/js/admin&#45;postgres.js</title>
<path fill="none" stroke="#cfffac" d="M303.21,-191.75C303.21,-191.75 47.29,-191.75 47.29,-191.75 43.33,-191.75 39.38,-187.79 39.38,-183.83 39.38,-183.83 39.38,-175.92 39.38,-175.92 39.38,-171.96 43.33,-168 47.29,-168 47.29,-168 303.21,-168 303.21,-168 307.17,-168 311.12,-171.96 311.12,-175.92 311.12,-175.92 311.12,-183.83 311.12,-183.83 311.12,-187.79 307.17,-191.75 303.21,-191.75"/>
<text xml:space="preserve" text-anchor="middle" x="175.25" y="-174.45" font-family="Arial" font-size="14.00" fill="#cfffac">frontend/public/assets/js/admin&#45;postgres.js</text>
</g>
<!-- frontend/public/assets/js/admin&#45;tendances&#45;dashboard.js -->
<g id="node6" class="node">
<title>frontend/public/assets/js/admin&#45;tendances&#45;dashboard.js</title>
<path fill="none" stroke="#cfffac" d="M342.58,-233.75C342.58,-233.75 7.92,-233.75 7.92,-233.75 3.96,-233.75 0,-229.79 0,-225.83 0,-225.83 0,-217.92 0,-217.92 0,-213.96 3.96,-210 7.92,-210 7.92,-210 342.58,-210 342.58,-210 346.54,-210 350.5,-213.96 350.5,-217.92 350.5,-217.92 350.5,-225.83 350.5,-225.83 350.5,-229.79 346.54,-233.75 342.58,-233.75"/>
<text xml:space="preserve" text-anchor="middle" x="175.25" y="-216.45" font-family="Arial" font-size="14.00" fill="#cfffac">frontend/public/assets/js/admin&#45;tendances&#45;dashboard.js</text>
</g>
<!-- frontend/public/assets/js/cache&#45;manager.js -->
<g id="node7" class="node">
<title>frontend/public/assets/js/cache&#45;manager.js</title>
<path fill="none" stroke="#cfffac" d="M303.21,-275.75C303.21,-275.75 47.29,-275.75 47.29,-275.75 43.33,-275.75 39.38,-271.79 39.38,-267.83 39.38,-267.83 39.38,-259.92 39.38,-259.92 39.38,-255.96 43.33,-252 47.29,-252 47.29,-252 303.21,-252 303.21,-252 307.17,-252 311.12,-255.96 311.12,-259.92 311.12,-259.92 311.12,-267.83 311.12,-267.83 311.12,-271.79 307.17,-275.75 303.21,-275.75"/>
<text xml:space="preserve" text-anchor="middle" x="175.25" y="-258.45" font-family="Arial" font-size="14.00" fill="#cfffac">frontend/public/assets/js/cache&#45;manager.js</text>
</g>
<!-- frontend/public/assets/js/comparatif&#45;produits.js -->
<g id="node8" class="node">
<title>frontend/public/assets/js/comparatif&#45;produits.js</title>
<path fill="none" stroke="#cfffac" d="M314.46,-317.75C314.46,-317.75 36.04,-317.75 36.04,-317.75 32.08,-317.75 28.12,-313.79 28.12,-309.83 28.12,-309.83 28.12,-301.92 28.12,-301.92 28.12,-297.96 32.08,-294 36.04,-294 36.04,-294 314.46,-294 314.46,-294 318.42,-294 322.38,-297.96 322.38,-301.92 322.38,-301.92 322.38,-309.83 322.38,-309.83 322.38,-313.79 318.42,-317.75 314.46,-317.75"/>
<text xml:space="preserve" text-anchor="middle" x="175.25" y="-300.45" font-family="Arial" font-size="14.00" fill="#cfffac">frontend/public/assets/js/comparatif&#45;produits.js</text>
</g>
<!-- frontend/public/assets/js/fiche&#45;produit.js -->
<g id="node9" class="node">
<title>frontend/public/assets/js/fiche&#45;produit.js</title>
<path fill="none" stroke="#cfffac" d="M293.46,-359.75C293.46,-359.75 57.04,-359.75 57.04,-359.75 53.08,-359.75 49.12,-355.79 49.12,-351.83 49.12,-351.83 49.12,-343.92 49.12,-343.92 49.12,-339.96 53.08,-336 57.04,-336 57.04,-336 293.46,-336 293.46,-336 297.42,-336 301.38,-339.96 301.38,-343.92 301.38,-343.92 301.38,-351.83 301.38,-351.83 301.38,-355.79 297.42,-359.75 293.46,-359.75"/>
<text xml:space="preserve" text-anchor="middle" x="175.25" y="-342.45" font-family="Arial" font-size="14.00" fill="#cfffac">frontend/public/assets/js/fiche&#45;produit.js</text>
</g>
<!-- frontend/public/assets/js/fiche&#45;produit.min.js -->
<g id="node10" class="node">
<title>frontend/public/assets/js/fiche&#45;produit.min.js</title>
<path fill="none" stroke="#cfffac" d="M306.58,-401.75C306.58,-401.75 43.92,-401.75 43.92,-401.75 39.96,-401.75 36,-397.79 36,-393.83 36,-393.83 36,-385.92 36,-385.92 36,-381.96 39.96,-378 43.92,-378 43.92,-378 306.58,-378 306.58,-378 310.54,-378 314.5,-381.96 314.5,-385.92 314.5,-385.92 314.5,-393.83 314.5,-393.83 314.5,-397.79 310.54,-401.75 306.58,-401.75"/>
<text xml:space="preserve" text-anchor="middle" x="175.25" y="-384.45" font-family="Arial" font-size="14.00" fill="#cfffac">frontend/public/assets/js/fiche&#45;produit.min.js</text>
</g>
<!-- frontend/public/assets/js/fiches.js -->
<g id="node11" class="node">
<title>frontend/public/assets/js/fiches.js</title>
<path fill="none" stroke="#cfffac" d="M273.96,-443.75C273.96,-443.75 76.54,-443.75 76.54,-443.75 72.58,-443.75 68.62,-439.79 68.62,-435.83 68.62,-435.83 68.62,-427.92 68.62,-427.92 68.62,-423.96 72.58,-420 76.54,-420 76.54,-420 273.96,-420 273.96,-420 277.92,-420 281.88,-423.96 281.88,-427.92 281.88,-427.92 281.88,-435.83 281.88,-435.83 281.88,-439.79 277.92,-443.75 273.96,-443.75"/>
<text xml:space="preserve" text-anchor="middle" x="175.25" y="-426.45" font-family="Arial" font-size="14.00" fill="#cfffac">frontend/public/assets/js/fiches.js</text>
</g>
<!-- frontend/public/assets/js/fiches.min.js -->
<g id="node12" class="node">
<title>frontend/public/assets/js/fiches.min.js</title>
<path fill="none" stroke="#cfffac" d="M287.08,-485.75C287.08,-485.75 63.42,-485.75 63.42,-485.75 59.46,-485.75 55.5,-481.79 55.5,-477.83 55.5,-477.83 55.5,-469.92 55.5,-469.92 55.5,-465.96 59.46,-462 63.42,-462 63.42,-462 287.08,-462 287.08,-462 291.04,-462 295,-465.96 295,-469.92 295,-469.92 295,-477.83 295,-477.83 295,-481.79 291.04,-485.75 287.08,-485.75"/>
<text xml:space="preserve" text-anchor="middle" x="175.25" y="-468.45" font-family="Arial" font-size="14.00" fill="#cfffac">frontend/public/assets/js/fiches.min.js</text>
</g>
<!-- frontend/public/assets/js/home.js -->
<g id="node13" class="node">
<title>frontend/public/assets/js/home.js</title>
<path fill="none" stroke="#cfffac" d="M273.58,-527.75C273.58,-527.75 76.92,-527.75 76.92,-527.75 72.96,-527.75 69,-523.79 69,-519.83 69,-519.83 69,-511.92 69,-511.92 69,-507.96 72.96,-504 76.92,-504 76.92,-504 273.58,-504 273.58,-504 277.54,-504 281.5,-507.96 281.5,-511.92 281.5,-511.92 281.5,-519.83 281.5,-519.83 281.5,-523.79 277.54,-527.75 273.58,-527.75"/>
<text xml:space="preserve" text-anchor="middle" x="175.25" y="-510.45" font-family="Arial" font-size="14.00" fill="#cfffac">frontend/public/assets/js/home.js</text>
</g>
<!-- frontend/public/assets/js/lazy&#45;loading.js -->
<g id="node14" class="node">
<title>frontend/public/assets/js/lazy&#45;loading.js</title>
<path fill="none" stroke="#cfffac" d="M292.33,-569.75C292.33,-569.75 58.17,-569.75 58.17,-569.75 54.21,-569.75 50.25,-565.79 50.25,-561.83 50.25,-561.83 50.25,-553.92 50.25,-553.92 50.25,-549.96 54.21,-546 58.17,-546 58.17,-546 292.33,-546 292.33,-546 296.29,-546 300.25,-549.96 300.25,-553.92 300.25,-553.92 300.25,-561.83 300.25,-561.83 300.25,-565.79 296.29,-569.75 292.33,-569.75"/>
<text xml:space="preserve" text-anchor="middle" x="175.25" y="-552.45" font-family="Arial" font-size="14.00" fill="#cfffac">frontend/public/assets/js/lazy&#45;loading.js</text>
</g>
<!-- frontend/public/assets/js/stats.js -->
<g id="node15" class="node">
<title>frontend/public/assets/js/stats.js</title>
<path fill="none" stroke="#cfffac" d="M270.58,-611.75C270.58,-611.75 79.92,-611.75 79.92,-611.75 75.96,-611.75 72,-607.79 72,-603.83 72,-603.83 72,-595.92 72,-595.92 72,-591.96 75.96,-588 79.92,-588 79.92,-588 270.58,-588 270.58,-588 274.54,-588 278.5,-591.96 278.5,-595.92 278.5,-595.92 278.5,-603.83 278.5,-603.83 278.5,-607.79 274.54,-611.75 270.58,-611.75"/>
<text xml:space="preserve" text-anchor="middle" x="175.25" y="-594.45" font-family="Arial" font-size="14.00" fill="#cfffac">frontend/public/assets/js/stats.js</text>
</g>
<!-- frontend/public/assets/js/sw.js -->
<g id="node16" class="node">
<title>frontend/public/assets/js/sw.js</title>
<path fill="none" stroke="#cfffac" d="M264.21,-653.75C264.21,-653.75 86.29,-653.75 86.29,-653.75 82.33,-653.75 78.38,-649.79 78.38,-645.83 78.38,-645.83 78.38,-637.92 78.38,-637.92 78.38,-633.96 82.33,-630 86.29,-630 86.29,-630 264.21,-630 264.21,-630 268.17,-630 272.12,-633.96 272.12,-637.92 272.12,-637.92 272.12,-645.83 272.12,-645.83 272.12,-649.79 268.17,-653.75 264.21,-653.75"/>
<text xml:space="preserve" text-anchor="middle" x="175.25" y="-636.45" font-family="Arial" font-size="14.00" fill="#cfffac">frontend/public/assets/js/sw.js</text>
</g>
<!-- frontend/public/assets/js/tendances copy.js -->
<g id="node17" class="node">
<title>frontend/public/assets/js/tendances copy.js</title>
<path fill="none" stroke="#cfffac" d="M303.21,-695.75C303.21,-695.75 47.29,-695.75 47.29,-695.75 43.33,-695.75 39.38,-691.79 39.38,-687.83 39.38,-687.83 39.38,-679.92 39.38,-679.92 39.38,-675.96 43.33,-672 47.29,-672 47.29,-672 303.21,-672 303.21,-672 307.17,-672 311.12,-675.96 311.12,-679.92 311.12,-679.92 311.12,-687.83 311.12,-687.83 311.12,-691.79 307.17,-695.75 303.21,-695.75"/>
<text xml:space="preserve" text-anchor="middle" x="175.25" y="-678.45" font-family="Arial" font-size="14.00" fill="#cfffac">frontend/public/assets/js/tendances copy.js</text>
</g>
<!-- frontend/public/assets/js/tendances.&#45;sans&#45;api.js -->
<g id="node18" class="node">
<title>frontend/public/assets/js/tendances.&#45;sans&#45;api.js</title>
<path fill="none" stroke="#cfffac" d="M317.08,-737.75C317.08,-737.75 33.42,-737.75 33.42,-737.75 29.46,-737.75 25.5,-733.79 25.5,-729.83 25.5,-729.83 25.5,-721.92 25.5,-721.92 25.5,-717.96 29.46,-714 33.42,-714 33.42,-714 317.08,-714 317.08,-714 321.04,-714 325,-717.96 325,-721.92 325,-721.92 325,-729.83 325,-729.83 325,-733.79 321.04,-737.75 317.08,-737.75"/>
<text xml:space="preserve" text-anchor="middle" x="175.25" y="-720.45" font-family="Arial" font-size="14.00" fill="#cfffac">frontend/public/assets/js/tendances.&#45;sans&#45;api.js</text>
</g>
<!-- frontend/public/assets/js/tendances.js -->
<g id="node19" class="node">
<title>frontend/public/assets/js/tendances.js</title>
<path fill="none" stroke="#cfffac" d="M287.46,-779.75C287.46,-779.75 63.04,-779.75 63.04,-779.75 59.08,-779.75 55.12,-775.79 55.12,-771.83 55.12,-771.83 55.12,-763.92 55.12,-763.92 55.12,-759.96 59.08,-756 63.04,-756 63.04,-756 287.46,-756 287.46,-756 291.42,-756 295.38,-759.96 295.38,-763.92 295.38,-763.92 295.38,-771.83 295.38,-771.83 295.38,-775.79 291.42,-779.75 287.46,-779.75"/>
<text xml:space="preserve" text-anchor="middle" x="175.25" y="-762.45" font-family="Arial" font-size="14.00" fill="#cfffac">frontend/public/assets/js/tendances.js</text>
</g>
<!-- frontend/public/assets/js/tendances.min.js -->
<g id="node20" class="node">
<title>frontend/public/assets/js/tendances.min.js</title>
<path fill="none" stroke="#cfffac" d="M300.58,-821.75C300.58,-821.75 49.92,-821.75 49.92,-821.75 45.96,-821.75 42,-817.79 42,-813.83 42,-813.83 42,-805.92 42,-805.92 42,-801.96 45.96,-798 49.92,-798 49.92,-798 300.58,-798 300.58,-798 304.54,-798 308.5,-801.96 308.5,-805.92 308.5,-805.92 308.5,-813.83 308.5,-813.83 308.5,-817.79 304.54,-821.75 300.58,-821.75"/>
<text xml:space="preserve" text-anchor="middle" x="175.25" y="-804.45" font-family="Arial" font-size="14.00" fill="#cfffac">frontend/public/assets/js/tendances.min.js</text>
</g>
<!-- frontend/public/assets/js/tendancesold.js -->
<g id="node21" class="node">
<title>frontend/public/assets/js/tendancesold.js</title>
<path fill="none" stroke="#cfffac" d="M296.46,-863.75C296.46,-863.75 54.04,-863.75 54.04,-863.75 50.08,-863.75 46.12,-859.79 46.12,-855.83 46.12,-855.83 46.12,-847.92 46.12,-847.92 46.12,-843.96 50.08,-840 54.04,-840 54.04,-840 296.46,-840 296.46,-840 300.42,-840 304.38,-843.96 304.38,-847.92 304.38,-847.92 304.38,-855.83 304.38,-855.83 304.38,-859.79 300.42,-863.75 296.46,-863.75"/>
<text xml:space="preserve" text-anchor="middle" x="175.25" y="-846.45" font-family="Arial" font-size="14.00" fill="#cfffac">frontend/public/assets/js/tendancesold.js</text>
</g>
<!-- frontend/public/assets/js/theme&#45;toggle.js -->
<g id="node22" class="node">
<title>frontend/public/assets/js/theme&#45;toggle.js</title>
<path fill="none" stroke="#cfffac" d="M296.08,-905.75C296.08,-905.75 54.42,-905.75 54.42,-905.75 50.46,-905.75 46.5,-901.79 46.5,-897.83 46.5,-897.83 46.5,-889.92 46.5,-889.92 46.5,-885.96 50.46,-882 54.42,-882 54.42,-882 296.08,-882 296.08,-882 300.04,-882 304,-885.96 304,-889.92 304,-889.92 304,-897.83 304,-897.83 304,-901.79 300.04,-905.75 296.08,-905.75"/>
<text xml:space="preserve" text-anchor="middle" x="175.25" y="-888.45" font-family="Arial" font-size="14.00" fill="#cfffac">frontend/public/assets/js/theme&#45;toggle.js</text>
</g>
<!-- frontend/public/assets/js/top&#45;du&#45;mois.js -->
<g id="node23" class="node">
<title>frontend/public/assets/js/top&#45;du&#45;mois.js</title>
<path fill="none" stroke="#cfffac" d="M292.33,-947.75C292.33,-947.75 58.17,-947.75 58.17,-947.75 54.21,-947.75 50.25,-943.79 50.25,-939.83 50.25,-939.83 50.25,-931.92 50.25,-931.92 50.25,-927.96 54.21,-924 58.17,-924 58.17,-924 292.33,-924 292.33,-924 296.29,-924 300.25,-927.96 300.25,-931.92 300.25,-931.92 300.25,-939.83 300.25,-939.83 300.25,-943.79 296.29,-947.75 292.33,-947.75"/>
<text xml:space="preserve" text-anchor="middle" x="175.25" y="-930.45" font-family="Arial" font-size="14.00" fill="#cfffac">frontend/public/assets/js/top&#45;du&#45;mois.js</text>
</g>
<!-- frontend/public/assets/js/utils.js -->
<g id="node24" class="node">
<title>frontend/public/assets/js/utils.js</title>
<path fill="none" stroke="#cfffac" d="M268.33,-989.75C268.33,-989.75 82.17,-989.75 82.17,-989.75 78.21,-989.75 74.25,-985.79 74.25,-981.83 74.25,-981.83 74.25,-973.92 74.25,-973.92 74.25,-969.96 78.21,-966 82.17,-966 82.17,-966 268.33,-966 268.33,-966 272.29,-966 276.25,-969.96 276.25,-973.92 276.25,-973.92 276.25,-981.83 276.25,-981.83 276.25,-985.79 272.29,-989.75 268.33,-989.75"/>
<text xml:space="preserve" text-anchor="middle" x="175.25" y="-972.45" font-family="Arial" font-size="14.00" fill="#cfffac">frontend/public/assets/js/utils.js</text>
</g>
<!-- quick&#45;check.js -->
<g id="node25" class="node">
<title>quick&#45;check.js</title>
<path fill="none" stroke="#cfffac" d="M217.71,-1031.75C217.71,-1031.75 132.79,-1031.75 132.79,-1031.75 128.83,-1031.75 124.88,-1027.79 124.88,-1023.83 124.88,-1023.83 124.88,-1015.92 124.88,-1015.92 124.88,-1011.96 128.83,-1008 132.79,-1008 132.79,-1008 217.71,-1008 217.71,-1008 221.67,-1008 225.62,-1011.96 225.62,-1015.92 225.62,-1015.92 225.62,-1023.83 225.62,-1023.83 225.62,-1027.79 221.67,-1031.75 217.71,-1031.75"/>
<text xml:space="preserve" text-anchor="middle" x="175.25" y="-1014.45" font-family="Arial" font-size="14.00" fill="#cfffac">quick&#45;check.js</text>
</g>
<!-- restore&#45;backup.js -->
<g id="node26" class="node">
<title>restore&#45;backup.js</title>
<path fill="none" stroke="#cfffac" d="M227.08,-1073.75C227.08,-1073.75 123.42,-1073.75 123.42,-1073.75 119.46,-1073.75 115.5,-1069.79 115.5,-1065.83 115.5,-1065.83 115.5,-1057.92 115.5,-1057.92 115.5,-1053.96 119.46,-1050 123.42,-1050 123.42,-1050 227.08,-1050 227.08,-1050 231.04,-1050 235,-1053.96 235,-1057.92 235,-1057.92 235,-1065.83 235,-1065.83 235,-1069.79 231.04,-1073.75 227.08,-1073.75"/>
<text xml:space="preserve" text-anchor="middle" x="175.25" y="-1056.45" font-family="Arial" font-size="14.00" fill="#cfffac">restore&#45;backup.js</text>
</g>
<!-- scripts/add&#45;missing&#45;products.js -->
<g id="node27" class="node">
<title>scripts/add&#45;missing&#45;products.js</title>
<path fill="none" stroke="#cfffac" d="M268.33,-1115.75C268.33,-1115.75 82.17,-1115.75 82.17,-1115.75 78.21,-1115.75 74.25,-1111.79 74.25,-1107.83 74.25,-1107.83 74.25,-1099.92 74.25,-1099.92 74.25,-1095.96 78.21,-1092 82.17,-1092 82.17,-1092 268.33,-1092 268.33,-1092 272.29,-1092 276.25,-1095.96 276.25,-1099.92 276.25,-1099.92 276.25,-1107.83 276.25,-1107.83 276.25,-1111.79 272.29,-1115.75 268.33,-1115.75"/>
<text xml:space="preserve" text-anchor="middle" x="175.25" y="-1098.45" font-family="Arial" font-size="14.00" fill="#cfffac">scripts/add&#45;missing&#45;products.js</text>
</g>
<!-- scripts/add&#45;new&#45;products.js -->
<g id="node28" class="node">
<title>scripts/add&#45;new&#45;products.js</title>
<path fill="none" stroke="#cfffac" d="M257.46,-1157.75C257.46,-1157.75 93.04,-1157.75 93.04,-1157.75 89.08,-1157.75 85.12,-1153.79 85.12,-1149.83 85.12,-1149.83 85.12,-1141.92 85.12,-1141.92 85.12,-1137.96 89.08,-1134 93.04,-1134 93.04,-1134 257.46,-1134 257.46,-1134 261.42,-1134 265.38,-1137.96 265.38,-1141.92 265.38,-1141.92 265.38,-1149.83 265.38,-1149.83 265.38,-1153.79 261.42,-1157.75 257.46,-1157.75"/>
<text xml:space="preserve" text-anchor="middle" x="175.25" y="-1140.45" font-family="Arial" font-size="14.00" fill="#cfffac">scripts/add&#45;new&#45;products.js</text>
</g>
<!-- scripts/check&#45;donnees&#45;structure.js -->
<g id="node29" class="node">
<title>scripts/check&#45;donnees&#45;structure.js</title>
<path fill="none" stroke="#cfffac" d="M277.71,-1199.75C277.71,-1199.75 72.79,-1199.75 72.79,-1199.75 68.83,-1199.75 64.88,-1195.79 64.88,-1191.83 64.88,-1191.83 64.88,-1183.92 64.88,-1183.92 64.88,-1179.96 68.83,-1176 72.79,-1176 72.79,-1176 277.71,-1176 277.71,-1176 281.67,-1176 285.62,-1179.96 285.62,-1183.92 285.62,-1183.92 285.62,-1191.83 285.62,-1191.83 285.62,-1195.79 281.67,-1199.75 277.71,-1199.75"/>
<text xml:space="preserve" text-anchor="middle" x="175.25" y="-1182.45" font-family="Arial" font-size="14.00" fill="#cfffac">scripts/check&#45;donnees&#45;structure.js</text>
</g>
<!-- scripts/check&#45;duplicate&#45;description.js -->
<g id="node30" class="node">
<title>scripts/check&#45;duplicate&#45;description.js</title>
<path fill="none" stroke="#cfffac" d="M285.21,-1241.75C285.21,-1241.75 65.29,-1241.75 65.29,-1241.75 61.33,-1241.75 57.38,-1237.79 57.38,-1233.83 57.38,-1233.83 57.38,-1225.92 57.38,-1225.92 57.38,-1221.96 61.33,-1218 65.29,-1218 65.29,-1218 285.21,-1218 285.21,-1218 289.17,-1218 293.12,-1221.96 293.12,-1225.92 293.12,-1225.92 293.12,-1233.83 293.12,-1233.83 293.12,-1237.79 289.17,-1241.75 285.21,-1241.75"/>
<text xml:space="preserve" text-anchor="middle" x="175.25" y="-1224.45" font-family="Arial" font-size="14.00" fill="#cfffac">scripts/check&#45;duplicate&#45;description.js</text>
</g>
<!-- scripts/check&#45;prod1.js -->
<g id="node31" class="node">
<title>scripts/check&#45;prod1.js</title>
<path fill="none" stroke="#cfffac" d="M240.58,-1283.75C240.58,-1283.75 109.92,-1283.75 109.92,-1283.75 105.96,-1283.75 102,-1279.79 102,-1275.83 102,-1275.83 102,-1267.92 102,-1267.92 102,-1263.96 105.96,-1260 109.92,-1260 109.92,-1260 240.58,-1260 240.58,-1260 244.54,-1260 248.5,-1263.96 248.5,-1267.92 248.5,-1267.92 248.5,-1275.83 248.5,-1275.83 248.5,-1279.79 244.54,-1283.75 240.58,-1283.75"/>
<text xml:space="preserve" text-anchor="middle" x="175.25" y="-1266.45" font-family="Arial" font-size="14.00" fill="#cfffac">scripts/check&#45;prod1.js</text>
</g>
<!-- scripts/check&#45;prod50.js -->
<g id="node32" class="node">
<title>scripts/check&#45;prod50.js</title>
<path fill="none" stroke="#cfffac" d="M244.33,-1325.75C244.33,-1325.75 106.17,-1325.75 106.17,-1325.75 102.21,-1325.75 98.25,-1321.79 98.25,-1317.83 98.25,-1317.83 98.25,-1309.92 98.25,-1309.92 98.25,-1305.96 102.21,-1302 106.17,-1302 106.17,-1302 244.33,-1302 244.33,-1302 248.29,-1302 252.25,-1305.96 252.25,-1309.92 252.25,-1309.92 252.25,-1317.83 252.25,-1317.83 252.25,-1321.79 248.29,-1325.75 244.33,-1325.75"/>
<text xml:space="preserve" text-anchor="middle" x="175.25" y="-1308.45" font-family="Arial" font-size="14.00" fill="#cfffac">scripts/check&#45;prod50.js</text>
</g>
<!-- scripts/check&#45;schemas.js -->
<g id="node33" class="node">
<title>scripts/check&#45;schemas.js</title>
<path fill="none" stroke="#cfffac" d="M250.71,-1367.75C250.71,-1367.75 99.79,-1367.75 99.79,-1367.75 95.83,-1367.75 91.88,-1363.79 91.88,-1359.83 91.88,-1359.83 91.88,-1351.92 91.88,-1351.92 91.88,-1347.96 95.83,-1344 99.79,-1344 99.79,-1344 250.71,-1344 250.71,-1344 254.67,-1344 258.62,-1347.96 258.62,-1351.92 258.62,-1351.92 258.62,-1359.83 258.62,-1359.83 258.62,-1363.79 254.67,-1367.75 250.71,-1367.75"/>
<text xml:space="preserve" text-anchor="middle" x="175.25" y="-1350.45" font-family="Arial" font-size="14.00" fill="#cfffac">scripts/check&#45;schemas.js</text>
</g>
<!-- scripts/clean&#45;donnees&#45;fiche.js -->
<g id="node34" class="node">
<title>scripts/clean&#45;donnees&#45;fiche.js</title>
<path fill="none" stroke="#cfffac" d="M264.21,-1409.75C264.21,-1409.75 86.29,-1409.75 86.29,-1409.75 82.33,-1409.75 78.38,-1405.79 78.38,-1401.83 78.38,-1401.83 78.38,-1393.92 78.38,-1393.92 78.38,-1389.96 82.33,-1386 86.29,-1386 86.29,-1386 264.21,-1386 264.21,-1386 268.17,-1386 272.12,-1389.96 272.12,-1393.92 272.12,-1393.92 272.12,-1401.83 272.12,-1401.83 272.12,-1405.79 268.17,-1409.75 264.21,-1409.75"/>
<text xml:space="preserve" text-anchor="middle" x="175.25" y="-1392.45" font-family="Arial" font-size="14.00" fill="#cfffac">scripts/clean&#45;donnees&#45;fiche.js</text>
</g>
<!-- scripts/clean&#45;donnees&#45;prices.js -->
<g id="node35" class="node">
<title>scripts/clean&#45;donnees&#45;prices.js</title>
<path fill="none" stroke="#cfffac" d="M267.96,-1451.75C267.96,-1451.75 82.54,-1451.75 82.54,-1451.75 78.58,-1451.75 74.62,-1447.79 74.62,-1443.83 74.62,-1443.83 74.62,-1435.92 74.62,-1435.92 74.62,-1431.96 78.58,-1428 82.54,-1428 82.54,-1428 267.96,-1428 267.96,-1428 271.92,-1428 275.88,-1431.96 275.88,-1435.92 275.88,-1435.92 275.88,-1443.83 275.88,-1443.83 275.88,-1447.79 271.92,-1451.75 267.96,-1451.75"/>
<text xml:space="preserve" text-anchor="middle" x="175.25" y="-1434.45" font-family="Arial" font-size="14.00" fill="#cfffac">scripts/clean&#45;donnees&#45;prices.js</text>
</g>
<!-- scripts/clean&#45;prices.js -->
<g id="node36" class="node">
<title>scripts/clean&#45;prices.js</title>
<path fill="none" stroke="#cfffac" d="M239.83,-1493.75C239.83,-1493.75 110.67,-1493.75 110.67,-1493.75 106.71,-1493.75 102.75,-1489.79 102.75,-1485.83 102.75,-1485.83 102.75,-1477.92 102.75,-1477.92 102.75,-1473.96 106.71,-1470 110.67,-1470 110.67,-1470 239.83,-1470 239.83,-1470 243.79,-1470 247.75,-1473.96 247.75,-1477.92 247.75,-1477.92 247.75,-1485.83 247.75,-1485.83 247.75,-1489.79 243.79,-1493.75 239.83,-1493.75"/>
<text xml:space="preserve" text-anchor="middle" x="175.25" y="-1476.45" font-family="Arial" font-size="14.00" fill="#cfffac">scripts/clean&#45;prices.js</text>
</g>
<!-- scripts/complete&#45;all&#45;donnees&#45;fiche&#45;backup.js -->
<g id="node37" class="node">
<title>scripts/complete&#45;all&#45;donnees&#45;fiche&#45;backup.js</title>
<path fill="none" stroke="#cfffac" d="M308.83,-1535.75C308.83,-1535.75 41.67,-1535.75 41.67,-1535.75 37.71,-1535.75 33.75,-1531.79 33.75,-1527.83 33.75,-1527.83 33.75,-1519.92 33.75,-1519.92 33.75,-1515.96 37.71,-1512 41.67,-1512 41.67,-1512 308.83,-1512 308.83,-1512 312.79,-1512 316.75,-1515.96 316.75,-1519.92 316.75,-1519.92 316.75,-1527.83 316.75,-1527.83 316.75,-1531.79 312.79,-1535.75 308.83,-1535.75"/>
<text xml:space="preserve" text-anchor="middle" x="175.25" y="-1518.45" font-family="Arial" font-size="14.00" fill="#cfffac">scripts/complete&#45;all&#45;donnees&#45;fiche&#45;backup.js</text>
</g>
<!-- scripts/complete&#45;all&#45;donnees&#45;fiche.js -->
<g id="node38" class="node">
<title>scripts/complete&#45;all&#45;donnees&#45;fiche.js</title>
<path fill="none" stroke="#cfffac" d="M284.83,-1577.75C284.83,-1577.75 65.67,-1577.75 65.67,-1577.75 61.71,-1577.75 57.75,-1573.79 57.75,-1569.83 57.75,-1569.83 57.75,-1561.92 57.75,-1561.92 57.75,-1557.96 61.71,-1554 65.67,-1554 65.67,-1554 284.83,-1554 284.83,-1554 288.79,-1554 292.75,-1557.96 292.75,-1561.92 292.75,-1561.92 292.75,-1569.83 292.75,-1569.83 292.75,-1573.79 288.79,-1577.75 284.83,-1577.75"/>
<text xml:space="preserve" text-anchor="middle" x="175.25" y="-1560.45" font-family="Arial" font-size="14.00" fill="#cfffac">scripts/complete&#45;all&#45;donnees&#45;fiche.js</text>
</g>
<!-- scripts/download&#45;camera&#45;images.js -->
<g id="node39" class="node">
<title>scripts/download&#45;camera&#45;images.js</title>
<path fill="none" stroke="#cfffac" d="M281.83,-1619.75C281.83,-1619.75 68.67,-1619.75 68.67,-1619.75 64.71,-1619.75 60.75,-1615.79 60.75,-1611.83 60.75,-1611.83 60.75,-1603.92 60.75,-1603.92 60.75,-1599.96 64.71,-1596 68.67,-1596 68.67,-1596 281.83,-1596 281.83,-1596 285.79,-1596 289.75,-1599.96 289.75,-1603.92 289.75,-1603.92 289.75,-1611.83 289.75,-1611.83 289.75,-1615.79 285.79,-1619.75 281.83,-1619.75"/>
<text xml:space="preserve" text-anchor="middle" x="175.25" y="-1602.45" font-family="Arial" font-size="14.00" fill="#cfffac">scripts/download&#45;camera&#45;images.js</text>
</g>
<!-- scripts/enrich&#45;from&#45;seed.js -->
<g id="node40" class="node">
<title>scripts/enrich&#45;from&#45;seed.js</title>
<path fill="none" stroke="#cfffac" d="M254.83,-1661.75C254.83,-1661.75 95.67,-1661.75 95.67,-1661.75 91.71,-1661.75 87.75,-1657.79 87.75,-1653.83 87.75,-1653.83 87.75,-1645.92 87.75,-1645.92 87.75,-1641.96 91.71,-1638 95.67,-1638 95.67,-1638 254.83,-1638 254.83,-1638 258.79,-1638 262.75,-1641.96 262.75,-1645.92 262.75,-1645.92 262.75,-1653.83 262.75,-1653.83 262.75,-1657.79 258.79,-1661.75 254.83,-1661.75"/>
<text xml:space="preserve" text-anchor="middle" x="175.25" y="-1644.45" font-family="Arial" font-size="14.00" fill="#cfffac">scripts/enrich&#45;from&#45;seed.js</text>
</g>
<!-- scripts/fill&#45;titre&#45;affiche.js -->
<g id="node41" class="node">
<title>scripts/fill&#45;titre&#45;affiche.js</title>
<path fill="none" stroke="#cfffac" d="M245.46,-1703.75C245.46,-1703.75 105.04,-1703.75 105.04,-1703.75 101.08,-1703.75 97.12,-1699.79 97.12,-1695.83 97.12,-1695.83 97.12,-1687.92 97.12,-1687.92 97.12,-1683.96 101.08,-1680 105.04,-1680 105.04,-1680 245.46,-1680 245.46,-1680 249.42,-1680 253.38,-1683.96 253.38,-1687.92 253.38,-1687.92 253.38,-1695.83 253.38,-1695.83 253.38,-1699.79 249.42,-1703.75 245.46,-1703.75"/>
<text xml:space="preserve" text-anchor="middle" x="175.25" y="-1686.45" font-family="Arial" font-size="14.00" fill="#cfffac">scripts/fill&#45;titre&#45;affiche.js</text>
</g>
<!-- scripts/find&#45;donnees&#45;prices.js -->
<g id="node42" class="node">
<title>scripts/find&#45;donnees&#45;prices.js</title>
<path fill="none" stroke="#cfffac" d="M262.71,-1745.75C262.71,-1745.75 87.79,-1745.75 87.79,-1745.75 83.83,-1745.75 79.88,-1741.79 79.88,-1737.83 79.88,-1737.83 79.88,-1729.92 79.88,-1729.92 79.88,-1725.96 83.83,-1722 87.79,-1722 87.79,-1722 262.71,-1722 262.71,-1722 266.67,-1722 270.62,-1725.96 270.62,-1729.92 270.62,-1729.92 270.62,-1737.83 270.62,-1737.83 270.62,-1741.79 266.67,-1745.75 262.71,-1745.75"/>
<text xml:space="preserve" text-anchor="middle" x="175.25" y="-1728.45" font-family="Arial" font-size="14.00" fill="#cfffac">scripts/find&#45;donnees&#45;prices.js</text>
</g>
<!-- scripts/find&#45;price&#45;marker.js -->
<g id="node43" class="node">
<title>scripts/find&#45;price&#45;marker.js</title>
<path fill="none" stroke="#cfffac" d="M254.46,-1787.75C254.46,-1787.75 96.04,-1787.75 96.04,-1787.75 92.08,-1787.75 88.12,-1783.79 88.12,-1779.83 88.12,-1779.83 88.12,-1771.92 88.12,-1771.92 88.12,-1767.96 92.08,-1764 96.04,-1764 96.04,-1764 254.46,-1764 254.46,-1764 258.42,-1764 262.38,-1767.96 262.38,-1771.92 262.38,-1771.92 262.38,-1779.83 262.38,-1779.83 262.38,-1783.79 258.42,-1787.75 254.46,-1787.75"/>
<text xml:space="preserve" text-anchor="middle" x="175.25" y="-1770.45" font-family="Arial" font-size="14.00" fill="#cfffac">scripts/find&#45;price&#45;marker.js</text>
</g>
<!-- scripts/fix&#45;descriptions&#45;and&#45;specs.js -->
<g id="node44" class="node">
<title>scripts/fix&#45;descriptions&#45;and&#45;specs.js</title>
<path fill="none" stroke="#cfffac" d="M281.83,-1829.75C281.83,-1829.75 68.67,-1829.75 68.67,-1829.75 64.71,-1829.75 60.75,-1825.79 60.75,-1821.83 60.75,-1821.83 60.75,-1813.92 60.75,-1813.92 60.75,-1809.96 64.71,-1806 68.67,-1806 68.67,-1806 281.83,-1806 281.83,-1806 285.79,-1806 289.75,-1809.96 289.75,-1813.92 289.75,-1813.92 289.75,-1821.83 289.75,-1821.83 289.75,-1825.79 285.79,-1829.75 281.83,-1829.75"/>
<text xml:space="preserve" text-anchor="middle" x="175.25" y="-1812.45" font-family="Arial" font-size="14.00" fill="#cfffac">scripts/fix&#45;descriptions&#45;and&#45;specs.js</text>
</g>
<!-- scripts/fix&#45;donnees&#45;fiche.js -->
<g id="node45" class="node">
<title>scripts/fix&#45;donnees&#45;fiche.js</title>
<path fill="none" stroke="#cfffac" d="M254.83,-1871.75C254.83,-1871.75 95.67,-1871.75 95.67,-1871.75 91.71,-1871.75 87.75,-1867.79 87.75,-1863.83 87.75,-1863.83 87.75,-1855.92 87.75,-1855.92 87.75,-1851.96 91.71,-1848 95.67,-1848 95.67,-1848 254.83,-1848 254.83,-1848 258.79,-1848 262.75,-1851.96 262.75,-1855.92 262.75,-1855.92 262.75,-1863.83 262.75,-1863.83 262.75,-1867.79 258.79,-1871.75 254.83,-1871.75"/>
<text xml:space="preserve" text-anchor="middle" x="175.25" y="-1854.45" font-family="Arial" font-size="14.00" fill="#cfffac">scripts/fix&#45;donnees&#45;fiche.js</text>
</g>
<!-- scripts/fix&#45;format&#45;prices.js -->
<g id="node46" class="node">
<title>scripts/fix&#45;format&#45;prices.js</title>
<path fill="none" stroke="#cfffac" d="M252.21,-1913.75C252.21,-1913.75 98.29,-1913.75 98.29,-1913.75 94.33,-1913.75 90.38,-1909.79 90.38,-1905.83 90.38,-1905.83 90.38,-1897.92 90.38,-1897.92 90.38,-1893.96 94.33,-1890 98.29,-1890 98.29,-1890 252.21,-1890 252.21,-1890 256.17,-1890 260.12,-1893.96 260.12,-1897.92 260.12,-1897.92 260.12,-1905.83 260.12,-1905.83 260.12,-1909.79 256.17,-1913.75 252.21,-1913.75"/>
<text xml:space="preserve" text-anchor="middle" x="175.25" y="-1896.45" font-family="Arial" font-size="14.00" fill="#cfffac">scripts/fix&#45;format&#45;prices.js</text>
</g>
<!-- scripts/fix&#45;generic&#45;descriptions.js -->
<g id="node47" class="node">
<title>scripts/fix&#45;generic&#45;descriptions.js</title>
<path fill="none" stroke="#cfffac" d="M272.83,-1955.75C272.83,-1955.75 77.67,-1955.75 77.67,-1955.75 73.71,-1955.75 69.75,-1951.79 69.75,-1947.83 69.75,-1947.83 69.75,-1939.92 69.75,-1939.92 69.75,-1935.96 73.71,-1932 77.67,-1932 77.67,-1932 272.83,-1932 272.83,-1932 276.79,-1932 280.75,-1935.96 280.75,-1939.92 280.75,-1939.92 280.75,-1947.83 280.75,-1947.83 280.75,-1951.79 276.79,-1955.75 272.83,-1955.75"/>
<text xml:space="preserve" text-anchor="middle" x="175.25" y="-1938.45" font-family="Arial" font-size="14.00" fill="#cfffac">scripts/fix&#45;generic&#45;descriptions.js</text>
</g>
<!-- scripts/fix&#45;prices&#45;back.js -->
<g id="node48" class="node">
<title>scripts/fix&#45;prices&#45;back.js</title>
<path fill="none" stroke="#cfffac" d="M246.96,-1997.75C246.96,-1997.75 103.54,-1997.75 103.54,-1997.75 99.58,-1997.75 95.62,-1993.79 95.62,-1989.83 95.62,-1989.83 95.62,-1981.92 95.62,-1981.92 95.62,-1977.96 99.58,-1974 103.54,-1974 103.54,-1974 246.96,-1974 246.96,-1974 250.92,-1974 254.88,-1977.96 254.88,-1981.92 254.88,-1981.92 254.88,-1989.83 254.88,-1989.83 254.88,-1993.79 250.92,-1997.75 246.96,-1997.75"/>
<text xml:space="preserve" text-anchor="middle" x="175.25" y="-1980.45" font-family="Arial" font-size="14.00" fill="#cfffac">scripts/fix&#45;prices&#45;back.js</text>
</g>
<!-- scripts/fix&#45;razer&#45;name.js -->
<g id="node49" class="node">
<title>scripts/fix&#45;razer&#45;name.js</title>
<path fill="none" stroke="#cfffac" d="M247.33,-2039.75C247.33,-2039.75 103.17,-2039.75 103.17,-2039.75 99.21,-2039.75 95.25,-2035.79 95.25,-2031.83 95.25,-2031.83 95.25,-2023.92 95.25,-2023.92 95.25,-2019.96 99.21,-2016 103.17,-2016 103.17,-2016 247.33,-2016 247.33,-2016 251.29,-2016 255.25,-2019.96 255.25,-2023.92 255.25,-2023.92 255.25,-2031.83 255.25,-2031.83 255.25,-2035.79 251.29,-2039.75 247.33,-2039.75"/>
<text xml:space="preserve" text-anchor="middle" x="175.25" y="-2022.45" font-family="Arial" font-size="14.00" fill="#cfffac">scripts/fix&#45;razer&#45;name.js</text>
</g>
<!-- scripts/generate&#45;all&#45;new&#45;fiches.js -->
<g id="node50" class="node">
<title>scripts/generate&#45;all&#45;new&#45;fiches.js</title>
<path fill="none" stroke="#cfffac" d="M273.58,-2081.75C273.58,-2081.75 76.92,-2081.75 76.92,-2081.75 72.96,-2081.75 69,-2077.79 69,-2073.83 69,-2073.83 69,-2065.92 69,-2065.92 69,-2061.96 72.96,-2058 76.92,-2058 76.92,-2058 273.58,-2058 273.58,-2058 277.54,-2058 281.5,-2061.96 281.5,-2065.92 281.5,-2065.92 281.5,-2073.83 281.5,-2073.83 281.5,-2077.79 277.54,-2081.75 273.58,-2081.75"/>
<text xml:space="preserve" text-anchor="middle" x="175.25" y="-2064.45" font-family="Arial" font-size="14.00" fill="#cfffac">scripts/generate&#45;all&#45;new&#45;fiches.js</text>
</g>
<!-- scripts/generate&#45;new&#45;products.js -->
<g id="node51" class="node">
<title>scripts/generate&#45;new&#45;products.js</title>
<path fill="none" stroke="#cfffac" d="M272.83,-2123.75C272.83,-2123.75 77.67,-2123.75 77.67,-2123.75 73.71,-2123.75 69.75,-2119.79 69.75,-2115.83 69.75,-2115.83 69.75,-2107.92 69.75,-2107.92 69.75,-2103.96 73.71,-2100 77.67,-2100 77.67,-2100 272.83,-2100 272.83,-2100 276.79,-2100 280.75,-2103.96 280.75,-2107.92 280.75,-2107.92 280.75,-2115.83 280.75,-2115.83 280.75,-2119.79 276.79,-2123.75 272.83,-2123.75"/>
<text xml:space="preserve" text-anchor="middle" x="175.25" y="-2106.45" font-family="Arial" font-size="14.00" fill="#cfffac">scripts/generate&#45;new&#45;products.js</text>
</g>
<!-- scripts/inspect&#45;backup.js -->
<g id="node52" class="node">
<title>scripts/inspect&#45;backup.js</title>
<path fill="none" stroke="#cfffac" d="M248.83,-2165.75C248.83,-2165.75 101.67,-2165.75 101.67,-2165.75 97.71,-2165.75 93.75,-2161.79 93.75,-2157.83 93.75,-2157.83 93.75,-2149.92 93.75,-2149.92 93.75,-2145.96 97.71,-2142 101.67,-2142 101.67,-2142 248.83,-2142 248.83,-2142 252.79,-2142 256.75,-2145.96 256.75,-2149.92 256.75,-2149.92 256.75,-2157.83 256.75,-2157.83 256.75,-2161.79 252.79,-2165.75 248.83,-2165.75"/>
<text xml:space="preserve" text-anchor="middle" x="175.25" y="-2148.45" font-family="Arial" font-size="14.00" fill="#cfffac">scripts/inspect&#45;backup.js</text>
</g>
<!-- scripts/inspect&#45;category.js -->
<g id="node53" class="node">
<title>scripts/inspect&#45;category.js</title>
<path fill="none" stroke="#cfffac" d="M252.58,-2207.75C252.58,-2207.75 97.92,-2207.75 97.92,-2207.75 93.96,-2207.75 90,-2203.79 90,-2199.83 90,-2199.83 90,-2191.92 90,-2191.92 90,-2187.96 93.96,-2184 97.92,-2184 97.92,-2184 252.58,-2184 252.58,-2184 256.54,-2184 260.5,-2187.96 260.5,-2191.92 260.5,-2191.92 260.5,-2199.83 260.5,-2199.83 260.5,-2203.79 256.54,-2207.75 252.58,-2207.75"/>
<text xml:space="preserve" text-anchor="middle" x="175.25" y="-2190.45" font-family="Arial" font-size="14.00" fill="#cfffac">scripts/inspect&#45;category.js</text>
</g>
<!-- scripts/list&#45;prices&#45;to&#45;clean.js -->
<g id="node54" class="node">
<title>scripts/list&#45;prices&#45;to&#45;clean.js</title>
<path fill="none" stroke="#cfffac" d="M258.21,-2249.75C258.21,-2249.75 92.29,-2249.75 92.29,-2249.75 88.33,-2249.75 84.38,-2245.79 84.38,-2241.83 84.38,-2241.83 84.38,-2233.92 84.38,-2233.92 84.38,-2229.96 88.33,-2226 92.29,-2226 92.29,-2226 258.21,-2226 258.21,-2226 262.17,-2226 266.12,-2229.96 266.12,-2233.92 266.12,-2233.92 266.12,-2241.83 266.12,-2241.83 266.12,-2245.79 262.17,-2249.75 258.21,-2249.75"/>
<text xml:space="preserve" text-anchor="middle" x="175.25" y="-2232.45" font-family="Arial" font-size="14.00" fill="#cfffac">scripts/list&#45;prices&#45;to&#45;clean.js</text>
</g>
<!-- scripts/match&#45;product&#45;images.js -->
<g id="node55" class="node">
<title>scripts/match&#45;product&#45;images.js</title>
<path fill="none" stroke="#cfffac" d="M271.33,-2291.75C271.33,-2291.75 79.17,-2291.75 79.17,-2291.75 75.21,-2291.75 71.25,-2287.79 71.25,-2283.83 71.25,-2283.83 71.25,-2275.92 71.25,-2275.92 71.25,-2271.96 75.21,-2268 79.17,-2268 79.17,-2268 271.33,-2268 271.33,-2268 275.29,-2268 279.25,-2271.96 279.25,-2275.92 279.25,-2275.92 279.25,-2283.83 279.25,-2283.83 279.25,-2287.79 275.29,-2291.75 271.33,-2291.75"/>
<text xml:space="preserve" text-anchor="middle" x="175.25" y="-2274.45" font-family="Arial" font-size="14.00" fill="#cfffac">scripts/match&#45;product&#45;images.js</text>
</g>
<!-- scripts/normalize&#45;camera.js -->
<g id="node56" class="node">
<title>scripts/normalize&#45;camera.js</title>
<path fill="none" stroke="#cfffac" d="M258.21,-2333.75C258.21,-2333.75 92.29,-2333.75 92.29,-2333.75 88.33,-2333.75 84.38,-2329.79 84.38,-2325.83 84.38,-2325.83 84.38,-2317.92 84.38,-2317.92 84.38,-2313.96 88.33,-2310 92.29,-2310 92.29,-2310 258.21,-2310 258.21,-2310 262.17,-2310 266.12,-2313.96 266.12,-2317.92 266.12,-2317.92 266.12,-2325.83 266.12,-2325.83 266.12,-2329.79 262.17,-2333.75 258.21,-2333.75"/>
<text xml:space="preserve" text-anchor="middle" x="175.25" y="-2316.45" font-family="Arial" font-size="14.00" fill="#cfffac">scripts/normalize&#45;camera.js</text>
</g>
<!-- scripts/normalize&#45;casque&#45;vr.js -->
<g id="node57" class="node">
<title>scripts/normalize&#45;casque&#45;vr.js</title>
<path fill="none" stroke="#cfffac" d="M264.58,-2375.75C264.58,-2375.75 85.92,-2375.75 85.92,-2375.75 81.96,-2375.75 78,-2371.79 78,-2367.83 78,-2367.83 78,-2359.92 78,-2359.92 78,-2355.96 81.96,-2352 85.92,-2352 85.92,-2352 264.58,-2352 264.58,-2352 268.54,-2352 272.5,-2355.96 272.5,-2359.92 272.5,-2359.92 272.5,-2367.83 272.5,-2367.83 272.5,-2371.79 268.54,-2375.75 264.58,-2375.75"/>
<text xml:space="preserve" text-anchor="middle" x="175.25" y="-2358.45" font-family="Arial" font-size="14.00" fill="#cfffac">scripts/normalize&#45;casque&#45;vr.js</text>
</g>
<!-- scripts/normalize&#45;drone.js -->
<g id="node58" class="node">
<title>scripts/normalize&#45;drone.js</title>
<path fill="none" stroke="#cfffac" d="M252.58,-2417.75C252.58,-2417.75 97.92,-2417.75 97.92,-2417.75 93.96,-2417.75 90,-2413.79 90,-2409.83 90,-2409.83 90,-2401.92 90,-2401.92 90,-2397.96 93.96,-2394 97.92,-2394 97.92,-2394 252.58,-2394 252.58,-2394 256.54,-2394 260.5,-2397.96 260.5,-2401.92 260.5,-2401.92 260.5,-2409.83 260.5,-2409.83 260.5,-2413.79 256.54,-2417.75 252.58,-2417.75"/>
<text xml:space="preserve" text-anchor="middle" x="175.25" y="-2400.45" font-family="Arial" font-size="14.00" fill="#cfffac">scripts/normalize&#45;drone.js</text>
</g>
<!-- scripts/normalize&#45;ecran&#45;tv.js -->
<g id="node59" class="node">
<title>scripts/normalize&#45;ecran&#45;tv.js</title>
<path fill="none" stroke="#cfffac" d="M259.33,-2459.75C259.33,-2459.75 91.17,-2459.75 91.17,-2459.75 87.21,-2459.75 83.25,-2455.79 83.25,-2451.83 83.25,-2451.83 83.25,-2443.92 83.25,-2443.92 83.25,-2439.96 87.21,-2436 91.17,-2436 91.17,-2436 259.33,-2436 259.33,-2436 263.29,-2436 267.25,-2439.96 267.25,-2443.92 267.25,-2443.92 267.25,-2451.83 267.25,-2451.83 267.25,-2455.79 263.29,-2459.75 259.33,-2459.75"/>
<text xml:space="preserve" text-anchor="middle" x="175.25" y="-2442.45" font-family="Arial" font-size="14.00" fill="#cfffac">scripts/normalize&#45;ecran&#45;tv.js</text>
</g>
<!-- scripts/normalize&#45;montre&#45;connectee.js -->
<g id="node60" class="node">
<title>scripts/normalize&#45;montre&#45;connectee.js</title>
<path fill="none" stroke="#cfffac" d="M290.08,-2501.75C290.08,-2501.75 60.42,-2501.75 60.42,-2501.75 56.46,-2501.75 52.5,-2497.79 52.5,-2493.83 52.5,-2493.83 52.5,-2485.92 52.5,-2485.92 52.5,-2481.96 56.46,-2478 60.42,-2478 60.42,-2478 290.08,-2478 290.08,-2478 294.04,-2478 298,-2481.96 298,-2485.92 298,-2485.92 298,-2493.83 298,-2493.83 298,-2497.79 294.04,-2501.75 290.08,-2501.75"/>
<text xml:space="preserve" text-anchor="middle" x="175.25" y="-2484.45" font-family="Arial" font-size="14.00" fill="#cfffac">scripts/normalize&#45;montre&#45;connectee.js</text>
</g>
<!-- scripts/normalize&#45;remaining&#45;categories.js -->
<g id="node61" class="node">
<title>scripts/normalize&#45;remaining&#45;categories.js</title>
<path fill="none" stroke="#cfffac" d="M298.71,-2543.75C298.71,-2543.75 51.79,-2543.75 51.79,-2543.75 47.83,-2543.75 43.88,-2539.79 43.88,-2535.83 43.88,-2535.83 43.88,-2527.92 43.88,-2527.92 43.88,-2523.96 47.83,-2520 51.79,-2520 51.79,-2520 298.71,-2520 298.71,-2520 302.67,-2520 306.62,-2523.96 306.62,-2527.92 306.62,-2527.92 306.62,-2535.83 306.62,-2535.83 306.62,-2539.79 302.67,-2543.75 298.71,-2543.75"/>
<text xml:space="preserve" text-anchor="middle" x="175.25" y="-2526.45" font-family="Arial" font-size="14.00" fill="#cfffac">scripts/normalize&#45;remaining&#45;categories.js</text>
</g>
<!-- scripts/normalize&#45;smartphone.js -->
<g id="node62" class="node">
<title>scripts/normalize&#45;smartphone.js</title>
<path fill="none" stroke="#cfffac" d="M271.33,-2585.75C271.33,-2585.75 79.17,-2585.75 79.17,-2585.75 75.21,-2585.75 71.25,-2581.79 71.25,-2577.83 71.25,-2577.83 71.25,-2569.92 71.25,-2569.92 71.25,-2565.96 75.21,-2562 79.17,-2562 79.17,-2562 271.33,-2562 271.33,-2562 275.29,-2562 279.25,-2565.96 279.25,-2569.92 279.25,-2569.92 279.25,-2577.83 279.25,-2577.83 279.25,-2581.79 275.29,-2585.75 271.33,-2585.75"/>
<text xml:space="preserve" text-anchor="middle" x="175.25" y="-2568.45" font-family="Arial" font-size="14.00" fill="#cfffac">scripts/normalize&#45;smartphone.js</text>
</g>
<!-- scripts/normalize&#45;tablette.js -->
<g id="node63" class="node">
<title>scripts/normalize&#45;tablette.js</title>
<path fill="none" stroke="#cfffac" d="M257.46,-2627.75C257.46,-2627.75 93.04,-2627.75 93.04,-2627.75 89.08,-2627.75 85.12,-2623.79 85.12,-2619.83 85.12,-2619.83 85.12,-2611.92 85.12,-2611.92 85.12,-2607.96 89.08,-2604 93.04,-2604 93.04,-2604 257.46,-2604 257.46,-2604 261.42,-2604 265.38,-2607.96 265.38,-2611.92 265.38,-2611.92 265.38,-2619.83 265.38,-2619.83 265.38,-2623.79 261.42,-2627.75 257.46,-2627.75"/>
<text xml:space="preserve" text-anchor="middle" x="175.25" y="-2610.45" font-family="Arial" font-size="14.00" fill="#cfffac">scripts/normalize&#45;tablette.js</text>
</g>
<!-- scripts/normalize&#45;video&#45;projecteur.js -->
<g id="node64" class="node">
<title>scripts/normalize&#45;video&#45;projecteur.js</title>
<path fill="none" stroke="#cfffac" d="M283.33,-2669.75C283.33,-2669.75 67.17,-2669.75 67.17,-2669.75 63.21,-2669.75 59.25,-2665.79 59.25,-2661.83 59.25,-2661.83 59.25,-2653.92 59.25,-2653.92 59.25,-2649.96 63.21,-2646 67.17,-2646 67.17,-2646 283.33,-2646 283.33,-2646 287.29,-2646 291.25,-2649.96 291.25,-2653.92 291.25,-2653.92 291.25,-2661.83 291.25,-2661.83 291.25,-2665.79 287.29,-2669.75 283.33,-2669.75"/>
<text xml:space="preserve" text-anchor="middle" x="175.25" y="-2652.45" font-family="Arial" font-size="14.00" fill="#cfffac">scripts/normalize&#45;video&#45;projecteur.js</text>
</g>
<!-- scripts/populate&#45;from&#45;fiches.js -->
<g id="node65" class="node">
<title>scripts/populate&#45;from&#45;fiches.js</title>
<path fill="none" stroke="#cfffac" d="M265.33,-2711.75C265.33,-2711.75 85.17,-2711.75 85.17,-2711.75 81.21,-2711.75 77.25,-2707.79 77.25,-2703.83 77.25,-2703.83 77.25,-2695.92 77.25,-2695.92 77.25,-2691.96 81.21,-2688 85.17,-2688 85.17,-2688 265.33,-2688 265.33,-2688 269.29,-2688 273.25,-2691.96 273.25,-2695.92 273.25,-2695.92 273.25,-2703.83 273.25,-2703.83 273.25,-2707.79 269.29,-2711.75 265.33,-2711.75"/>
<text xml:space="preserve" text-anchor="middle" x="175.25" y="-2694.45" font-family="Arial" font-size="14.00" fill="#cfffac">scripts/populate&#45;from&#45;fiches.js</text>
</g>
<!-- scripts/quick&#45;check&#45;db.js -->
<g id="node66" class="node">
<title>scripts/quick&#45;check&#45;db.js</title>
<path fill="none" stroke="#cfffac" d="M248.83,-2753.75C248.83,-2753.75 101.67,-2753.75 101.67,-2753.75 97.71,-2753.75 93.75,-2749.79 93.75,-2745.83 93.75,-2745.83 93.75,-2737.92 93.75,-2737.92 93.75,-2733.96 97.71,-2730 101.67,-2730 101.67,-2730 248.83,-2730 248.83,-2730 252.79,-2730 256.75,-2733.96 256.75,-2737.92 256.75,-2737.92 256.75,-2745.83 256.75,-2745.83 256.75,-2749.79 252.79,-2753.75 248.83,-2753.75"/>
<text xml:space="preserve" text-anchor="middle" x="175.25" y="-2736.45" font-family="Arial" font-size="14.00" fill="#cfffac">scripts/quick&#45;check&#45;db.js</text>
</g>
<!-- scripts/reformat&#45;donnees&#45;prices.js -->
<g id="node67" class="node">
<title>scripts/reformat&#45;donnees&#45;prices.js</title>
<path fill="none" stroke="#cfffac" d="M277.33,-2795.75C277.33,-2795.75 73.17,-2795.75 73.17,-2795.75 69.21,-2795.75 65.25,-2791.79 65.25,-2787.83 65.25,-2787.83 65.25,-2779.92 65.25,-2779.92 65.25,-2775.96 69.21,-2772 73.17,-2772 73.17,-2772 277.33,-2772 277.33,-2772 281.29,-2772 285.25,-2775.96 285.25,-2779.92 285.25,-2779.92 285.25,-2787.83 285.25,-2787.83 285.25,-2791.79 281.29,-2795.75 277.33,-2795.75"/>
<text xml:space="preserve" text-anchor="middle" x="175.25" y="-2778.45" font-family="Arial" font-size="14.00" fill="#cfffac">scripts/reformat&#45;donnees&#45;prices.js</text>
</g>
<!-- scripts/regenerate&#45;all&#45;fiches&#45;direct.js -->
<g id="node68" class="node">
<title>scripts/regenerate&#45;all&#45;fiches&#45;direct.js</title>
<path fill="none" stroke="#cfffac" d="M283.71,-2837.75C283.71,-2837.75 66.79,-2837.75 66.79,-2837.75 62.83,-2837.75 58.88,-2833.79 58.88,-2829.83 58.88,-2829.83 58.88,-2821.92 58.88,-2821.92 58.88,-2817.96 62.83,-2814 66.79,-2814 66.79,-2814 283.71,-2814 283.71,-2814 287.67,-2814 291.62,-2817.96 291.62,-2821.92 291.62,-2821.92 291.62,-2829.83 291.62,-2829.83 291.62,-2833.79 287.67,-2837.75 283.71,-2837.75"/>
<text xml:space="preserve" text-anchor="middle" x="175.25" y="-2820.45" font-family="Arial" font-size="14.00" fill="#cfffac">scripts/regenerate&#45;all&#45;fiches&#45;direct.js</text>
</g>
<!-- scripts/regenerate&#45;all&#45;fiches.js -->
<g id="node69" class="node">
<title>scripts/regenerate&#45;all&#45;fiches.js</title>
<path fill="none" stroke="#cfffac" d="M264.96,-2879.75C264.96,-2879.75 85.54,-2879.75 85.54,-2879.75 81.58,-2879.75 77.62,-2875.79 77.62,-2871.83 77.62,-2871.83 77.62,-2863.92 77.62,-2863.92 77.62,-2859.96 81.58,-2856 85.54,-2856 85.54,-2856 264.96,-2856 264.96,-2856 268.92,-2856 272.88,-2859.96 272.88,-2863.92 272.88,-2863.92 272.88,-2871.83 272.88,-2871.83 272.88,-2875.79 268.92,-2879.75 264.96,-2879.75"/>
<text xml:space="preserve" text-anchor="middle" x="175.25" y="-2862.45" font-family="Arial" font-size="14.00" fill="#cfffac">scripts/regenerate&#45;all&#45;fiches.js</text>
</g>
<!-- scripts/regenerate&#45;fiches&#45;top.js -->
<g id="node70" class="node">
<title>scripts/regenerate&#45;fiches&#45;top.js</title>
<path fill="none" stroke="#cfffac" d="M267.58,-2921.75C267.58,-2921.75 82.92,-2921.75 82.92,-2921.75 78.96,-2921.75 75,-2917.79 75,-2913.83 75,-2913.83 75,-2905.92 75,-2905.92 75,-2901.96 78.96,-2898 82.92,-2898 82.92,-2898 267.58,-2898 267.58,-2898 271.54,-2898 275.5,-2901.96 275.5,-2905.92 275.5,-2905.92 275.5,-2913.83 275.5,-2913.83 275.5,-2917.79 271.54,-2921.75 267.58,-2921.75"/>
<text xml:space="preserve" text-anchor="middle" x="175.25" y="-2904.45" font-family="Arial" font-size="14.00" fill="#cfffac">scripts/regenerate&#45;fiches&#45;top.js</text>
</g>
<!-- scripts/regenerate&#45;normalized&#45;fiches.js -->
<g id="node71" class="node">
<title>scripts/regenerate&#45;normalized&#45;fiches.js</title>
<path fill="none" stroke="#cfffac" d="M291.58,-2963.75C291.58,-2963.75 58.92,-2963.75 58.92,-2963.75 54.96,-2963.75 51,-2959.79 51,-2955.83 51,-2955.83 51,-2947.92 51,-2947.92 51,-2943.96 54.96,-2940 58.92,-2940 58.92,-2940 291.58,-2940 291.58,-2940 295.54,-2940 299.5,-2943.96 299.5,-2947.92 299.5,-2947.92 299.5,-2955.83 299.5,-2955.83 299.5,-2959.79 295.54,-2963.75 291.58,-2963.75"/>
<text xml:space="preserve" text-anchor="middle" x="175.25" y="-2946.45" font-family="Arial" font-size="14.00" fill="#cfffac">scripts/regenerate&#45;normalized&#45;fiches.js</text>
</g>
<!-- scripts/reinit&#45;db.js -->
<g id="node72" class="node">
<title>scripts/reinit&#45;db.js</title>
<path fill="none" stroke="#cfffac" d="M227.83,-3005.75C227.83,-3005.75 122.67,-3005.75 122.67,-3005.75 118.71,-3005.75 114.75,-3001.79 114.75,-2997.83 114.75,-2997.83 114.75,-2989.92 114.75,-2989.92 114.75,-2985.96 118.71,-2982 122.67,-2982 122.67,-2982 227.83,-2982 227.83,-2982 231.79,-2982 235.75,-2985.96 235.75,-2989.92 235.75,-2989.92 235.75,-2997.83 235.75,-2997.83 235.75,-3001.79 231.79,-3005.75 227.83,-3005.75"/>
<text xml:space="preserve" text-anchor="middle" x="175.25" y="-2988.45" font-family="Arial" font-size="14.00" fill="#cfffac">scripts/reinit&#45;db.js</text>
</g>
<!-- scripts/restore&#45;backup&#45;novembre.js -->
<g id="node73" class="node">
<title>scripts/restore&#45;backup&#45;novembre.js</title>
<path fill="none" stroke="#cfffac" d="M281.08,-3047.75C281.08,-3047.75 69.42,-3047.75 69.42,-3047.75 65.46,-3047.75 61.5,-3043.79 61.5,-3039.83 61.5,-3039.83 61.5,-3031.92 61.5,-3031.92 61.5,-3027.96 65.46,-3024 69.42,-3024 69.42,-3024 281.08,-3024 281.08,-3024 285.04,-3024 289,-3027.96 289,-3031.92 289,-3031.92 289,-3039.83 289,-3039.83 289,-3043.79 285.04,-3047.75 281.08,-3047.75"/>
<text xml:space="preserve" text-anchor="middle" x="175.25" y="-3030.45" font-family="Arial" font-size="14.00" fill="#cfffac">scripts/restore&#45;backup&#45;novembre.js</text>
</g>
<!-- scripts/restore&#45;db.js -->
<g id="node74" class="node">
<title>scripts/restore&#45;db.js</title>
<path fill="none" stroke="#cfffac" d="M234.21,-3089.75C234.21,-3089.75 116.29,-3089.75 116.29,-3089.75 112.33,-3089.75 108.38,-3085.79 108.38,-3081.83 108.38,-3081.83 108.38,-3073.92 108.38,-3073.92 108.38,-3069.96 112.33,-3066 116.29,-3066 116.29,-3066 234.21,-3066 234.21,-3066 238.17,-3066 242.12,-3069.96 242.12,-3073.92 242.12,-3073.92 242.12,-3081.83 242.12,-3081.83 242.12,-3085.79 238.17,-3089.75 234.21,-3089.75"/>
<text xml:space="preserve" text-anchor="middle" x="175.25" y="-3072.45" font-family="Arial" font-size="14.00" fill="#cfffac">scripts/restore&#45;db.js</text>
</g>
<!-- scripts/restore&#45;donnees.js -->
<g id="node75" class="node">
<title>scripts/restore&#45;donnees.js</title>
<path fill="none" stroke="#cfffac" d="M252.58,-3131.75C252.58,-3131.75 97.92,-3131.75 97.92,-3131.75 93.96,-3131.75 90,-3127.79 90,-3123.83 90,-3123.83 90,-3115.92 90,-3115.92 90,-3111.96 93.96,-3108 97.92,-3108 97.92,-3108 252.58,-3108 252.58,-3108 256.54,-3108 260.5,-3111.96 260.5,-3115.92 260.5,-3115.92 260.5,-3123.83 260.5,-3123.83 260.5,-3127.79 256.54,-3131.75 252.58,-3131.75"/>
<text xml:space="preserve" text-anchor="middle" x="175.25" y="-3114.45" font-family="Arial" font-size="14.00" fill="#cfffac">scripts/restore&#45;donnees.js</text>
</g>
<!-- scripts/set&#45;top&#45;decembre.js -->
<g id="node76" class="node">
<title>scripts/set&#45;top&#45;decembre.js</title>
<path fill="none" stroke="#cfffac" d="M256.71,-3173.75C256.71,-3173.75 93.79,-3173.75 93.79,-3173.75 89.83,-3173.75 85.88,-3169.79 85.88,-3165.83 85.88,-3165.83 85.88,-3157.92 85.88,-3157.92 85.88,-3153.96 89.83,-3150 93.79,-3150 93.79,-3150 256.71,-3150 256.71,-3150 260.67,-3150 264.62,-3153.96 264.62,-3157.92 264.62,-3157.92 264.62,-3165.83 264.62,-3165.83 264.62,-3169.79 260.67,-3173.75 256.71,-3173.75"/>
<text xml:space="preserve" text-anchor="middle" x="175.25" y="-3156.45" font-family="Arial" font-size="14.00" fill="#cfffac">scripts/set&#45;top&#45;decembre.js</text>
</g>
<!-- scripts/set&#45;top&#45;novembre.js -->
<g id="node77" class="node">
<title>scripts/set&#45;top&#45;novembre.js</title>
<path fill="none" stroke="#cfffac" d="M256.71,-3215.75C256.71,-3215.75 93.79,-3215.75 93.79,-3215.75 89.83,-3215.75 85.88,-3211.79 85.88,-3207.83 85.88,-3207.83 85.88,-3199.92 85.88,-3199.92 85.88,-3195.96 89.83,-3192 93.79,-3192 93.79,-3192 256.71,-3192 256.71,-3192 260.67,-3192 264.62,-3195.96 264.62,-3199.92 264.62,-3199.92 264.62,-3207.83 264.62,-3207.83 264.62,-3211.79 260.67,-3215.75 256.71,-3215.75"/>
<text xml:space="preserve" text-anchor="middle" x="175.25" y="-3198.45" font-family="Arial" font-size="14.00" fill="#cfffac">scripts/set&#45;top&#45;novembre.js</text>
</g>
<!-- scripts/setup&#45;manifest.js -->
<g id="node78" class="node">
<title>scripts/setup&#45;manifest.js</title>
<path fill="none" stroke="#cfffac" d="M248.08,-3257.75C248.08,-3257.75 102.42,-3257.75 102.42,-3257.75 98.46,-3257.75 94.5,-3253.79 94.5,-3249.83 94.5,-3249.83 94.5,-3241.92 94.5,-3241.92 94.5,-3237.96 98.46,-3234 102.42,-3234 102.42,-3234 248.08,-3234 248.08,-3234 252.04,-3234 256,-3237.96 256,-3241.92 256,-3241.92 256,-3249.83 256,-3249.83 256,-3253.79 252.04,-3257.75 248.08,-3257.75"/>
<text xml:space="preserve" text-anchor="middle" x="175.25" y="-3240.45" font-family="Arial" font-size="14.00" fill="#cfffac">scripts/setup&#45;manifest.js</text>
</g>
<!-- scripts/tmp&#45;list&#45;incomplete.js -->
<g id="node79" class="node">
<title>scripts/tmp&#45;list&#45;incomplete.js</title>
<path fill="none" stroke="#cfffac" d="M260.83,-3299.75C260.83,-3299.75 89.67,-3299.75 89.67,-3299.75 85.71,-3299.75 81.75,-3295.79 81.75,-3291.83 81.75,-3291.83 81.75,-3283.92 81.75,-3283.92 81.75,-3279.96 85.71,-3276 89.67,-3276 89.67,-3276 260.83,-3276 260.83,-3276 264.79,-3276 268.75,-3279.96 268.75,-3283.92 268.75,-3283.92 268.75,-3291.83 268.75,-3291.83 268.75,-3295.79 264.79,-3299.75 260.83,-3299.75"/>
<text xml:space="preserve" text-anchor="middle" x="175.25" y="-3282.45" font-family="Arial" font-size="14.00" fill="#cfffac">scripts/tmp&#45;list&#45;incomplete.js</text>
</g>
<!-- scripts/update&#45;top&#45;decembre.js -->
<g id="node80" class="node">
<title>scripts/update&#45;top&#45;decembre.js</title>
<path fill="none" stroke="#cfffac" d="M268.33,-3341.75C268.33,-3341.75 82.17,-3341.75 82.17,-3341.75 78.21,-3341.75 74.25,-3337.79 74.25,-3333.83 74.25,-3333.83 74.25,-3325.92 74.25,-3325.92 74.25,-3321.96 78.21,-3318 82.17,-3318 82.17,-3318 268.33,-3318 268.33,-3318 272.29,-3318 276.25,-3321.96 276.25,-3325.92 276.25,-3325.92 276.25,-3333.83 276.25,-3333.83 276.25,-3337.79 272.29,-3341.75 268.33,-3341.75"/>
<text xml:space="preserve" text-anchor="middle" x="175.25" y="-3324.45" font-family="Arial" font-size="14.00" fill="#cfffac">scripts/update&#45;top&#45;decembre.js</text>
</g>
<!-- scripts/verify&#45;donnees&#45;prices.js -->
<g id="node81" class="node">
<title>scripts/verify&#45;donnees&#45;prices.js</title>
<path fill="none" stroke="#cfffac" d="M267.96,-3383.75C267.96,-3383.75 82.54,-3383.75 82.54,-3383.75 78.58,-3383.75 74.62,-3379.79 74.62,-3375.83 74.62,-3375.83 74.62,-3367.92 74.62,-3367.92 74.62,-3363.96 78.58,-3360 82.54,-3360 82.54,-3360 267.96,-3360 267.96,-3360 271.92,-3360 275.88,-3363.96 275.88,-3367.92 275.88,-3367.92 275.88,-3375.83 275.88,-3375.83 275.88,-3379.79 271.92,-3383.75 267.96,-3383.75"/>
<text xml:space="preserve" text-anchor="middle" x="175.25" y="-3366.45" font-family="Arial" font-size="14.00" fill="#cfffac">scripts/verify&#45;donnees&#45;prices.js</text>
</g>
<!-- server.js -->
<g id="node82" class="node">
<title>server.js</title>
<path fill="none" stroke="#cfffac" d="M200.46,-3425.75C200.46,-3425.75 150.04,-3425.75 150.04,-3425.75 146.08,-3425.75 142.12,-3421.79 142.12,-3417.83 142.12,-3417.83 142.12,-3409.92 142.12,-3409.92 142.12,-3405.96 146.08,-3402 150.04,-3402 150.04,-3402 200.46,-3402 200.46,-3402 204.42,-3402 208.38,-3405.96 208.38,-3409.92 208.38,-3409.92 208.38,-3417.83 208.38,-3417.83 208.38,-3421.79 204.42,-3425.75 200.46,-3425.75"/>
<text xml:space="preserve" text-anchor="middle" x="175.25" y="-3408.45" font-family="Arial" font-size="14.00" fill="#cfffac">server.js</text>
</g>
<!-- serverOK.js -->
<g id="node83" class="node">
<title>serverOK.js</title>
<path fill="none" stroke="#cfffac" d="M210.96,-3467.75C210.96,-3467.75 139.54,-3467.75 139.54,-3467.75 135.58,-3467.75 131.62,-3463.79 131.62,-3459.83 131.62,-3459.83 131.62,-3451.92 131.62,-3451.92 131.62,-3447.96 135.58,-3444 139.54,-3444 139.54,-3444 210.96,-3444 210.96,-3444 214.92,-3444 218.88,-3447.96 218.88,-3451.92 218.88,-3451.92 218.88,-3459.83 218.88,-3459.83 218.88,-3463.79 214.92,-3467.75 210.96,-3467.75"/>
<text xml:space="preserve" text-anchor="middle" x="175.25" y="-3450.45" font-family="Arial" font-size="14.00" fill="#cfffac">serverOK.js</text>
</g>
<!-- test&#45;http&#45;simple.js -->
<g id="node84" class="node">
<title>test&#45;http&#45;simple.js</title>
<path fill="none" stroke="#cfffac" d="M228.58,-3509.75C228.58,-3509.75 121.92,-3509.75 121.92,-3509.75 117.96,-3509.75 114,-3505.79 114,-3501.83 114,-3501.83 114,-3493.92 114,-3493.92 114,-3489.96 117.96,-3486 121.92,-3486 121.92,-3486 228.58,-3486 228.58,-3486 232.54,-3486 236.5,-3489.96 236.5,-3493.92 236.5,-3493.92 236.5,-3501.83 236.5,-3501.83 236.5,-3505.79 232.54,-3509.75 228.58,-3509.75"/>
<text xml:space="preserve" text-anchor="middle" x="175.25" y="-3492.45" font-family="Arial" font-size="14.00" fill="#cfffac">test&#45;http&#45;simple.js</text>
</g>
<!-- test&#45;minimal&#45;server.js -->
<g id="node85" class="node">
<title>test&#45;minimal&#45;server.js</title>
<path fill="none" stroke="#cfffac" d="M239.83,-3551.75C239.83,-3551.75 110.67,-3551.75 110.67,-3551.75 106.71,-3551.75 102.75,-3547.79 102.75,-3543.83 102.75,-3543.83 102.75,-3535.92 102.75,-3535.92 102.75,-3531.96 106.71,-3528 110.67,-3528 110.67,-3528 239.83,-3528 239.83,-3528 243.79,-3528 247.75,-3531.96 247.75,-3535.92 247.75,-3535.92 247.75,-3543.83 247.75,-3543.83 247.75,-3547.79 243.79,-3551.75 239.83,-3551.75"/>
<text xml:space="preserve" text-anchor="middle" x="175.25" y="-3534.45" font-family="Arial" font-size="14.00" fill="#cfffac">test&#45;minimal&#45;server.js</text>
</g>
<!-- test&#45;server.js -->
<g id="node86" class="node">
<title>test&#45;server.js</title>
<path fill="none" stroke="#cfffac" d="M213.58,-3593.75C213.58,-3593.75 136.92,-3593.75 136.92,-3593.75 132.96,-3593.75 129,-3589.79 129,-3585.83 129,-3585.83 129,-3577.92 129,-3577.92 129,-3573.96 132.96,-3570 136.92,-3570 136.92,-3570 213.58,-3570 213.58,-3570 217.54,-3570 221.5,-3573.96 221.5,-3577.92 221.5,-3577.92 221.5,-3585.83 221.5,-3585.83 221.5,-3589.79 217.54,-3593.75 213.58,-3593.75"/>
<text xml:space="preserve" text-anchor="middle" x="175.25" y="-3576.45" font-family="Arial" font-size="14.00" fill="#cfffac">test&#45;server.js</text>
</g>
<!-- update&#45;links.js -->
<g id="node87" class="node">
<title>update&#45;links.js</title>
<path fill="none" stroke="#cfffac" d="M218.46,-3635.75C218.46,-3635.75 132.04,-3635.75 132.04,-3635.75 128.08,-3635.75 124.12,-3631.79 124.12,-3627.83 124.12,-3627.83 124.12,-3619.92 124.12,-3619.92 124.12,-3615.96 128.08,-3612 132.04,-3612 132.04,-3612 218.46,-3612 218.46,-3612 222.42,-3612 226.38,-3615.96 226.38,-3619.92 226.38,-3619.92 226.38,-3627.83 226.38,-3627.83 226.38,-3631.79 222.42,-3635.75 218.46,-3635.75"/>
<text xml:space="preserve" text-anchor="middle" x="175.25" y="-3618.45" font-family="Arial" font-size="14.00" fill="#cfffac">update&#45;links.js</text>
</g>
</g>
</svg>
