<?xml version="1.0" encoding="UTF-8" standalone="no"?>
<!DOCTYPE svg PUBLIC "-//W3C//DTD SVG 1.1//EN"
 "http://www.w3.org/Graphics/SVG/1.1/DTD/svg11.dtd">
<!-- Generated by graphviz version 14.1.1 (20251213.1925)
 -->
<!-- Title: G Pages: 1 -->
<svg width="109pt" height="67pt"
 viewBox="0.00 0.00 109.00 67.00" xmlns="http://www.w3.org/2000/svg" xmlns:xlink="http://www.w3.org/1999/xlink">
<g id="graph0" class="graph" transform="scale(1 1) rotate(0) translate(21.6 45.35)">
<title>G</title>
<polygon fill="#111111" stroke="none" points="-21.6,21.6 -21.6,-45.35 87.85,-45.35 87.85,21.6 -21.6,21.6"/>
<!-- server.js -->
<g id="node1" class="node">
<title>server.js</title>
<path fill="none" stroke="#cfffac" d="M58.33,-23.75C58.33,-23.75 7.92,-23.75 7.92,-23.75 3.96,-23.75 0,-19.79 0,-15.83 0,-15.83 0,-7.92 0,-7.92 0,-3.96 3.96,0 7.92,0 7.92,0 58.33,0 58.33,0 62.29,0 66.25,-3.96 66.25,-7.92 66.25,-7.92 66.25,-15.83 66.25,-15.83 66.25,-19.79 62.29,-23.75 58.33,-23.75"/>
<text xml:space="preserve" text-anchor="middle" x="33.12" y="-6.45" font-family="Arial" font-size="14.00" fill="#cfffac">server.js</text>
</g>
</g>
</svg>
